<?xml version="1.0" standalone="no"?>
<!DOCTYPE svg PUBLIC "-//W3C//DTD SVG 1.1//EN" "http://www.w3.org/Graphics/SVG/1.1/DTD/svg11.dtd">
<svg xmlns="http://www.w3.org/2000/svg" width="500" height="500" viewBox="0 0 500 500">
<g>
<path d="M 273.17 237.35 C271.03,239.28 267.44,239.52 266.37,237.79 C264.25,234.36 267.24,226.00 270.58,226.00 C274.72,226.00 276.60,234.24 273.17,237.35 ZM 206.96 245.07 C205.45,247.89 201.57,247.54 200.16,244.45 C199.52,243.05 199.00,240.83 199.00,239.52 C199.00,235.56 203.79,232.24 205.51,235.02 C205.86,235.58 206.56,235.77 207.07,235.46 C208.34,234.67 208.25,242.66 206.96,245.07 ZM 294.88 241.36 C295.63,242.26 296.02,243.00 295.74,243.00 C294.72,243.00 293.04,240.29 293.68,239.66 C294.04,239.30 293.89,239.00 293.35,239.00 C292.80,239.00 292.25,236.74 292.13,233.98 C292.00,231.22 292.26,229.05 292.70,229.14 C293.14,229.24 294.26,228.98 295.19,228.57 C297.38,227.61 300.23,228.18 300.72,229.67 C300.97,230.42 300.37,230.65 299.06,230.30 C297.63,229.93 297.00,230.24 297.00,231.32 C297.00,233.54 298.83,234.38 300.54,232.96 C301.76,231.96 302.00,232.19 302.00,234.38 C302.00,237.99 298.54,241.31 295.71,240.41 C293.76,239.79 293.67,239.90 294.88,241.36 ZM 230.74 239.75 C229.04,241.91 225.06,241.23 223.85,238.57 C221.55,233.52 225.10,228.33 229.13,230.85 C230.65,231.80 231.00,231.73 231.00,230.51 C231.00,229.68 231.44,229.00 231.98,229.00 C233.18,229.00 232.15,237.96 230.74,239.75 ZM 203.45 238.91 C203.82,239.51 204.51,240.00 205.00,240.00 C206.54,240.00 207.27,237.87 206.11,236.71 C204.73,235.33 202.42,237.25 203.45,238.91 ZM 271.00 229.92 C271.00,231.15 271.65,232.00 272.57,232.00 C273.50,232.00 274.01,231.32 273.82,230.33 C273.34,227.82 271.00,227.48 271.00,229.92 ZM 227.18 233.45 C226.99,234.35 227.54,235.00 228.50,235.00 C229.53,235.00 230.02,234.34 229.81,233.25 C229.40,231.14 227.63,231.28 227.18,233.45 Z" fill="rgba(0,0,0,1)"/>
<path d="M 433.57 232.22 C435.67,233.72 437.57,234.76 437.80,234.54 C438.12,234.21 438.11,232.87 437.85,230.83 C438.82,235.09 440.35,240.09 441.60,243.00 C442.83,245.85 443.67,248.48 444.12,251.00 C444.06,250.83 444.00,250.66 443.93,250.50 L 442.68 247.50 L 441.91 252.35 C440.24,262.85 432.63,269.00 420.35,269.79 L 413.04 270.26 L 412.42 273.88 C409.19,292.67 405.17,305.75 398.01,320.76 C375.61,367.69 332.76,400.74 280.76,411.20 C271.36,413.09 266.27,413.46 250.00,413.46 C233.73,413.46 228.64,413.09 219.24,411.20 C167.64,400.83 125.71,368.84 102.94,322.50 C94.95,306.23 90.97,293.64 87.58,273.88 L 86.96 270.26 L 79.73 269.79 C71.26,269.24 65.28,266.57 61.68,261.76 C58.37,257.32 56.66,251.55 57.29,246.88 C57.82,242.93 57.64,242.20 56.33,244.46 C56.59,243.94 56.88,243.38 57.20,242.78 C59.01,239.37 62.43,235.07 65.12,232.80 L 69.86 228.81 L 65.49 222.44 C60.78,215.55 59.29,209.83 60.41,202.86 C61.73,194.55 67.85,186.62 75.34,183.50 C78.32,182.26 79.01,181.52 78.46,180.20 C78.32,179.89 78.15,179.37 77.96,178.73 C78.28,179.70 78.65,180.68 79.07,181.67 C82.20,188.96 83.29,197.49 82.04,204.91 C80.73,212.72 76.34,222.15 71.80,226.95 C69.74,229.12 69.20,230.14 70.35,229.70 C71.35,229.31 75.49,229.00 79.56,229.00 C86.43,229.00 87.00,228.84 87.43,226.75 C87.69,225.51 88.61,220.78 89.48,216.24 C93.24,196.60 104.14,171.73 116.75,154.01 C128.27,137.82 147.74,119.79 164.50,109.80 C222.01,75.52 291.46,78.25 346.10,116.94 C358.04,125.39 374.83,142.14 383.26,154.00 C395.87,171.75 406.76,196.60 410.52,216.24 C411.39,220.78 412.30,225.47 412.54,226.65 C412.95,228.60 413.74,228.83 421.37,229.15 C428.56,229.45 430.29,229.88 433.57,232.22 ZM 241.00 410.40 C242.93,410.62 249.36,410.60 255.30,410.35 C300.58,408.42 340.44,389.62 370.48,356.04 C389.65,334.61 405.11,301.81 408.57,275.25 L 409.26 270.00 L 377.13 270.00 C358.28,270.00 345.00,269.62 345.00,269.08 C345.00,268.29 344.97,267.65 345.21,267.14 C346.23,264.95 352.07,265.00 385.40,265.00 C424.04,265.00 424.64,264.97 429.04,262.75 C433.84,260.33 438.00,253.95 438.00,249.00 C438.00,244.77 433.82,237.73 430.00,235.52 C426.69,233.61 424.33,233.47 386.01,233.00 C348.60,232.54 345.50,232.37 345.19,230.76 C344.88,229.15 347.09,229.01 376.68,228.76 L 408.50 228.50 L 408.21 224.00 C407.82,218.05 404.62,205.53 400.81,195.00 C383.67,147.72 343.45,110.03 295.00,95.86 C268.81,88.20 232.14,88.20 206.00,95.86 C157.33,110.13 117.21,147.27 99.99,194.00 C96.32,203.97 92.00,221.11 92.00,225.75 L 92.00 229.00 L 123.91 229.00 C154.89,229.00 155.80,229.06 155.31,230.92 C154.83,232.77 153.27,232.86 114.15,233.17 C75.25,233.49 73.35,233.59 70.00,235.56 C65.89,237.97 62.04,244.23 62.02,248.54 C61.99,253.89 65.99,260.24 70.96,262.75 C75.36,264.97 75.96,265.00 114.60,265.00 C147.93,265.00 153.77,264.95 154.79,267.14 C155.03,267.65 155.00,268.29 155.00,269.08 C155.00,269.62 141.79,270.00 123.06,270.00 L 91.13 270.00 L 91.66 273.75 C91.95,275.81 93.23,282.00 94.52,287.50 C104.98,332.33 134.49,370.06 176.24,392.01 C195.36,402.06 213.52,407.22 241.00,410.40 ZM 217.87 286.88 C209.54,288.26 209.28,288.26 208.43,286.89 C208.05,286.26 211.56,281.96 216.60,276.89 C221.47,272.00 225.07,268.00 224.59,268.00 C224.12,268.00 226.00,265.76 228.78,263.03 C231.55,260.30 235.10,255.46 236.65,252.28 C239.18,247.12 239.48,245.43 239.49,236.50 C239.50,227.73 239.17,225.80 236.82,220.78 C231.32,209.04 220.72,201.00 208.03,198.92 C200.59,197.70 200.22,197.74 199.69,199.75 C199.41,200.81 199.19,200.41 199.12,198.72 C198.97,195.11 196.99,194.44 192.62,196.51 C187.77,198.81 186.41,200.58 188.00,202.49 C188.68,203.32 188.99,204.92 188.70,206.06 C188.00,208.71 193.30,212.24 197.20,211.72 C198.68,211.52 199.67,211.73 199.39,212.18 C198.51,213.60 194.61,213.07 190.78,211.02 C188.57,209.84 186.85,209.44 186.49,210.02 C186.15,210.56 185.15,211.00 184.25,211.00 C183.35,211.00 181.26,212.24 179.61,213.75 L 176.61 216.50 L 179.30 213.18 C181.47,210.49 181.79,209.48 180.94,207.89 C180.36,206.81 180.17,205.04 180.51,203.96 C181.36,201.29 178.85,199.00 175.07,199.00 C173.79,199.00 173.00,198.92 172.51,199.26 C171.63,199.87 171.68,201.80 171.53,207.83 C171.43,211.87 170.89,215.47 170.33,215.83 C168.68,216.90 166.75,221.05 164.88,227.50 C163.92,230.80 163.11,232.48 163.07,231.23 C162.98,228.21 166.55,218.15 168.47,216.03 C169.56,214.83 170.00,212.16 170.00,206.87 C170.00,202.39 170.48,198.92 171.20,198.20 C173.00,196.40 176.84,196.75 180.01,199.01 C183.17,201.26 184.88,200.86 190.90,196.47 C194.63,193.76 198.77,193.23 199.59,195.36 C199.91,196.20 202.48,196.97 206.27,197.37 C218.76,198.68 231.01,206.86 236.76,217.75 C244.06,231.57 243.02,246.23 233.81,259.30 C232.37,261.35 234.24,260.05 239.03,255.67 C247.16,248.25 251.39,245.55 253.60,246.40 C254.72,246.83 254.86,246.36 254.26,244.22 C253.84,242.73 253.50,237.43 253.50,232.45 C253.50,224.01 253.75,222.88 257.23,215.85 C264.38,201.39 277.17,192.94 293.08,192.18 C307.44,191.50 317.37,195.41 326.93,205.52 C334.39,213.40 337.29,220.34 337.81,231.50 C338.05,236.45 337.98,240.26 337.68,239.98 C337.37,239.69 337.02,236.20 336.91,232.23 C336.24,209.30 316.63,191.84 293.09,193.20 C268.17,194.64 249.93,217.91 255.04,241.74 C256.02,246.30 256.51,246.86 263.79,251.69 C274.04,258.50 283.21,267.49 282.81,270.35 C282.54,272.23 280.65,272.98 267.50,276.36 C253.24,280.02 248.83,280.52 235.50,279.94 C231.38,279.76 226.48,281.60 225.56,283.66 C224.83,285.31 223.15,286.01 217.87,286.88 ZM 322.59 84.85 C322.43,84.90 322.28,84.95 322.13,85.01 C313.65,88.04 312.34,88.24 303.61,87.78 C289.99,87.07 283.29,83.73 271.91,72.02 C262.20,62.01 258.17,59.80 249.50,59.67 C247.27,59.63 245.17,59.84 243.18,60.30 C245.08,59.83 247.03,59.58 249.00,59.57 C255.84,59.53 260.15,61.20 266.31,66.26 L 271.11 70.21 L 276.88 66.16 C283.59,61.46 290.26,59.49 296.55,60.35 C306.19,61.67 312.88,67.36 317.95,78.55 C319.56,82.10 321.30,85.00 321.82,85.00 C321.96,85.00 322.23,84.94 322.59,84.85 ZM 238.07 62.14 C235.38,63.50 232.89,65.43 230.50,67.97 C218.68,80.55 214.97,83.27 205.66,86.18 C196.54,89.02 178.00,88.16 178.00,84.89 C178.00,84.34 177.63,84.11 177.18,84.39 C176.74,84.66 174.60,84.26 172.43,83.49 C174.60,84.26 176.79,84.63 177.30,84.32 C177.81,84.00 179.32,81.27 180.65,78.25 C184.22,70.19 187.55,66.37 193.58,63.41 C198.23,61.14 199.97,60.83 206.24,61.15 C213.61,61.52 213.74,61.58 225.55,68.98 C227.78,70.38 228.11,70.27 231.21,67.08 C233.18,65.05 235.51,63.39 238.07,62.14 ZM 143.10 93.61 C142.54,94.47 142.04,95.36 141.59,96.29 C140.20,99.16 138.61,104.42 138.05,108.00 C136.70,116.58 131.99,125.92 125.95,131.95 C120.47,137.43 109.17,143.54 106.03,142.72 C104.93,142.43 104.03,142.55 104.00,142.98 L 104.01 134.16 C104.02,126.09 104.41,123.67 106.38,119.50 C111.10,109.52 119.66,104.58 131.25,105.15 L 138.27 105.50 L 139.51 101.32 C140.35,98.49 141.57,95.91 143.10,93.61 ZM 66.19 277.90 C66.76,278.32 67.16,278.50 67.32,278.34 C68.26,277.41 75.38,286.79 78.08,292.50 C82.57,302.00 83.53,311.36 81.00,321.68 C81.00,321.65 81.00,321.62 81.00,321.60 C81.00,320.87 78.94,319.48 76.42,318.52 C62.88,313.35 56.83,297.04 63.45,283.52 L 66.19 277.90 ZM 395.68 140.93 C393.82,139.30 391.67,137.31 389.49,135.17 C383.99,129.76 375.07,122.05 369.65,118.05 C360.18,111.03 359.82,110.63 360.20,107.38 C360.42,105.52 360.33,104.00 360.01,104.00 C359.97,104.00 359.93,103.98 359.88,103.93 L 367.45 103.79 C374.36,103.66 376.23,104.01 380.62,106.27 C383.44,107.72 386.94,110.33 388.41,112.07 C393.62,118.27 394.49,120.91 394.54,130.72 C394.57,136.85 394.75,139.18 395.68,140.93 ZM 104.51 366.58 C113.88,368.89 120.16,372.28 125.94,378.06 C130.93,383.05 134.24,388.65 136.45,396.00 L 131.29 396.00 C123.71,396.00 118.75,394.33 113.86,390.15 C108.51,385.57 105.02,378.12 105.01,371.25 C105.00,368.54 104.94,367.21 104.51,366.58 ZM 276.90 433.05 C285.77,424.74 291.04,422.87 303.70,422.23 C312.06,421.81 313.72,422.05 321.97,424.88 C329.53,427.48 332.80,428.27 336.80,427.68 C333.06,428.25 330.13,427.69 324.86,425.87 C319.05,423.86 318.67,423.84 317.73,425.51 C315.52,429.47 309.25,435.43 305.50,437.13 C302.94,438.30 299.11,438.96 294.85,438.98 C289.34,439.00 287.21,438.48 282.36,435.93 L 276.90 433.05 ZM 181.66 423.21 C186.00,422.03 188.68,421.94 195.00,422.20 C202.62,422.51 205.63,423.11 210.24,425.23 C217.03,428.36 223.20,432.86 222.43,434.11 C222.13,434.60 222.39,435.00 223.01,435.00 C223.03,435.00 223.04,435.00 223.05,435.00 C222.39,435.06 220.07,436.05 217.78,437.25 C211.90,440.34 201.24,440.36 195.43,437.29 C190.95,434.93 184.58,428.41 183.54,425.11 C183.27,424.26 183.11,423.69 182.74,423.40 C182.50,423.22 182.17,423.16 181.66,423.21 ZM 225.50 313.33 C224.27,315.02 208.10,316.83 206.75,315.44 C205.54,314.19 205.89,311.89 207.25,312.15 C207.94,312.29 211.79,312.05 215.82,311.63 C220.97,311.09 223.71,310.29 225.07,308.93 C226.53,307.47 228.40,307.00 232.80,307.00 C235.99,307.00 239.08,307.48 239.68,308.08 C241.02,309.42 264.72,305.72 276.25,302.37 C277.59,301.99 278.00,302.46 278.00,304.37 C278.00,305.75 277.54,307.16 276.99,307.51 C276.43,307.85 268.03,309.27 258.32,310.65 C245.73,312.45 240.04,312.89 238.49,312.18 C235.34,310.74 226.84,311.50 225.50,313.33 ZM 364.53 395.87 C372.74,389.88 384.23,380.20 391.09,373.45 C393.35,371.23 395.56,369.20 397.33,367.69 C396.53,369.06 396.00,370.79 395.99,372.47 C395.98,377.11 391.69,385.28 387.43,388.79 C382.74,392.67 376.16,395.00 369.96,395.00 C367.75,395.00 365.96,395.27 364.53,395.87 ZM 436.55 223.74 C434.52,214.46 430.79,201.32 427.50,193.00 C425.65,188.32 423.99,183.84 423.82,183.02 C423.64,182.21 422.95,180.95 422.27,180.22 C421.71,179.62 421.44,178.41 421.44,176.49 C421.48,180.04 422.78,181.32 426.95,183.47 C430.55,185.33 435.87,191.45 437.70,195.82 C439.64,200.46 439.52,209.10 437.44,214.88 C436.23,218.26 435.95,219.65 436.55,223.74 ZM 423.20 327.34 C423.90,325.29 424.91,322.77 426.37,319.32 C431.36,307.49 438.00,283.47 438.00,277.22 C438.00,276.77 438.05,276.25 438.15,275.68 C438.10,276.99 438.26,278.53 438.53,280.81 C440.59,298.15 439.42,303.66 432.00,311.50 C429.84,313.79 426.69,319.06 424.66,323.80 C424.09,325.15 423.60,326.31 423.20,327.34 ZM 284.00 260.87 C286.34,261.81 286.36,261.88 284.33,261.94 C281.46,262.02 276.33,256.80 275.49,252.93 C275.11,251.24 274.97,249.70 275.17,249.50 C275.36,249.31 278.35,249.40 281.82,249.72 C285.83,250.08 287.76,250.64 287.15,251.25 C286.54,251.86 284.53,251.85 281.60,251.22 C278.80,250.63 277.00,250.61 277.00,251.17 C277.00,252.68 283.61,255.00 287.90,255.00 C294.67,255.00 299.93,251.91 295.25,250.69 C294.17,250.41 294.56,250.19 296.25,250.12 C300.04,249.96 299.90,252.91 295.90,257.47 C292.74,261.06 290.80,262.01 291.25,259.75 C291.57,258.16 285.68,257.52 283.27,258.87 C281.66,259.78 281.73,259.96 284.00,260.87 ZM 194.27 277.86 C192.20,277.76 189.60,278.04 188.50,278.50 C187.40,278.95 186.73,279.13 187.00,278.91 C187.28,278.68 189.02,277.15 190.87,275.50 C193.96,272.74 194.18,272.68 193.55,274.75 C193.00,276.55 193.26,277.00 194.81,277.00 C195.88,277.00 197.32,276.33 198.00,275.50 C198.78,274.56 200.99,274.00 203.96,274.00 C206.55,274.00 208.91,273.75 209.21,273.46 C209.89,272.77 204.21,267.00 202.85,267.00 C202.30,267.00 201.18,266.33 200.36,265.50 C199.02,264.17 199.07,264.00 200.73,264.00 C201.76,264.00 203.18,263.44 203.89,262.75 C204.92,261.74 205.12,261.89 204.88,263.50 C204.14,268.59 211.20,273.77 217.11,272.48 C220.02,271.84 222.53,268.86 221.25,267.58 C220.87,267.20 221.37,267.21 222.37,267.59 C224.02,268.22 223.96,268.49 221.64,270.81 C219.01,273.44 213.24,274.78 203.86,274.93 C200.67,274.98 199.03,275.48 198.63,276.53 C198.23,277.57 196.86,277.99 194.27,277.86 ZM 182.57 208.43 C184.62,210.48 185.71,210.41 186.91,208.16 C188.44,205.31 187.14,202.00 184.49,202.00 C181.04,202.00 179.91,205.77 182.57,208.43 ZM 314.51 216.02 C316.36,219.60 316.28,219.62 312.70,216.48 C311.16,215.12 308.69,213.75 307.20,213.42 C302.73,212.45 302.00,212.11 302.00,211.03 C302.00,209.50 306.68,209.78 310.03,211.52 C311.65,212.35 313.66,214.38 314.51,216.02 ZM 279.25 210.60 C276.64,210.55 273.38,210.90 272.01,211.39 C269.77,212.20 269.66,212.12 270.87,210.65 C272.86,208.25 279.51,206.67 282.00,208.00 C285.29,209.76 284.29,210.71 279.25,210.60 ZM 259.25 289.34 C257.35,290.50 247.20,291.13 246.58,290.13 C245.88,288.99 247.50,288.50 255.25,287.49 C258.17,287.12 260.00,287.26 260.00,287.88 C260.00,288.43 259.66,289.09 259.25,289.34 ZM 193.01 222.99 C190.87,224.09 188.61,225.78 188.01,226.74 C187.08,228.22 187.01,228.10 187.54,226.00 C188.45,222.40 192.91,219.01 196.75,219.00 C198.54,219.00 200.00,219.45 200.00,220.00 C200.00,220.55 199.31,221.00 198.46,221.00 C197.61,221.00 195.16,221.90 193.01,222.99 ZM 226.69 216.47 C229.68,219.09 229.67,219.62 226.67,217.88 C225.66,217.29 222.85,216.97 220.42,217.16 C216.00,217.51 214.21,215.90 217.58,214.61 C220.74,213.40 223.95,214.05 226.69,216.47 ZM 273.45 293.87 C272.09,295.12 263.19,296.11 262.55,295.09 C261.87,293.97 265.45,293.03 270.45,293.01 C272.75,293.01 274.00,293.36 273.45,293.87 ZM 277.45 279.87 C276.05,281.16 268.21,282.15 267.57,281.12 C266.89,280.02 270.36,279.03 274.95,279.01 C276.97,279.01 278.01,279.36 277.45,279.87 ZM 225.76 299.25 C225.26,300.77 220.42,301.49 219.60,300.16 C218.93,299.08 221.20,298.00 224.17,298.00 C225.32,298.00 225.99,298.53 225.76,299.25 ZM 246.54 302.93 C245.73,304.25 242.00,304.36 242.00,303.07 C242.00,301.99 245.89,300.56 246.68,301.34 C246.96,301.63 246.90,302.35 246.54,302.93 ZM 89.48 362.05 C92.22,363.34 97.23,364.95 101.58,365.91 C99.99,365.70 97.50,365.15 95.35,364.51 C93.23,363.88 91.27,363.05 89.48,362.05 ZM 144.29 418.08 C144.96,418.94 145.71,419.76 146.56,420.61 C148.95,423.00 152.24,425.01 155.72,426.32 C150.93,424.82 147.19,422.17 144.29,418.08 ZM 259.68 448.06 C261.64,447.14 265.99,443.60 270.41,439.40 L 270.40 439.41 C266.93,443.14 262.38,446.83 259.89,447.96 C259.82,448.00 259.75,448.03 259.68,448.06 ZM 339.20 82.71 C338.36,82.53 337.52,82.39 336.67,82.31 C332.90,81.92 330.54,82.18 325.41,83.87 C325.81,83.72 326.22,83.55 326.62,83.38 C330.46,81.78 334.89,81.68 339.20,82.71 ZM 147.81 88.25 C154.45,82.47 163.64,80.36 172.43,83.49 C163.91,80.45 154.47,82.55 147.81,88.25 ZM 56.51 266.69 C57.69,268.64 59.80,271.32 61.85,273.62 C59.51,271.35 57.76,269.10 56.51,266.69 ZM 166.06 427.74 C168.19,427.32 171.51,426.43 174.85,425.36 C174.74,425.40 174.62,425.44 174.50,425.48 C170.98,426.73 168.41,427.47 166.06,427.74 ZM 413.88 358.33 C416.41,355.93 418.39,352.97 419.75,349.57 C418.75,352.12 417.42,354.49 415.86,356.38 C415.33,357.01 414.66,357.67 413.88,358.33 ZM 76.68 167.05 C76.39,169.63 76.49,172.26 76.99,174.93 C76.91,174.58 76.83,174.22 76.76,173.88 C76.34,171.86 76.33,169.50 76.68,167.05 ZM 440.08 269.71 C440.37,269.06 440.68,268.42 441.02,267.79 C442.11,265.71 442.97,263.67 443.59,261.73 C443.02,263.71 442.18,265.72 441.07,267.81 C440.70,268.51 440.37,269.14 440.08,269.71 ZM 401.54 364.93 C402.60,364.70 404.80,363.87 407.03,362.87 C404.96,363.94 402.98,364.71 401.54,364.93 ZM 359.59 404.15 C360.00,401.03 360.56,399.30 361.66,398.09 C360.59,399.52 359.94,401.50 359.59,404.15 ZM 54.38 249.88 C53.83,253.38 53.94,257.90 54.68,261.58 C54.24,259.62 54.03,257.49 54.02,255.14 C54.01,253.00 54.10,251.38 54.38,249.88 ZM 238.50 448.14 C241.64,449.57 246.43,450.15 250.96,449.91 C246.42,450.17 241.69,449.59 238.50,448.14 ZM 415.89 153.68 C414.35,151.82 411.59,149.69 408.80,148.01 C411.59,149.67 414.32,151.77 415.89,153.68 ZM 76.69 338.03 C76.54,340.44 76.68,342.80 77.11,345.06 C76.68,342.81 76.53,340.45 76.69,338.03 ZM 421.14 344.99 C421.35,344.06 421.51,343.10 421.63,342.12 C421.52,343.07 421.36,344.03 421.14,344.99 ZM 78.92 328.36 C78.85,328.55 78.78,328.75 78.70,328.94 C78.69,328.98 78.67,329.02 78.66,329.06 C78.70,328.94 78.74,328.83 78.79,328.71 C78.83,328.59 78.88,328.48 78.92,328.36 Z" fill="rgba(91,55,32,1)"/>
<path d="M 238.50 448.14 C236.29,447.14 232.16,443.77 229.32,440.66 C226.47,437.55 223.64,435.00 223.01,435.00 C222.39,435.00 222.13,434.60 222.43,434.11 C223.20,432.86 217.03,428.36 210.24,425.23 C205.63,423.11 202.62,422.51 195.00,422.20 C186.46,421.85 184.56,422.13 176.24,424.91 C171.14,426.61 165.71,428.00 164.17,428.00 C158.17,428.00 150.89,424.95 146.56,420.61 C142.06,416.11 140.36,412.23 137.52,400.00 C135.34,390.62 131.80,383.92 125.94,378.06 C119.65,371.76 112.75,368.30 101.92,365.98 C96.85,364.90 90.77,362.88 88.41,361.50 C77.84,355.31 73.80,341.76 78.70,328.94 C83.79,315.64 83.59,304.17 78.08,292.50 C75.38,286.79 68.26,277.41 67.32,278.34 C66.43,279.24 57.64,269.38 55.87,265.50 C53.58,260.48 53.39,250.07 55.53,245.95 C57.55,242.04 57.91,242.23 57.29,246.88 C56.66,251.55 58.37,257.32 61.68,261.76 C65.28,266.57 71.26,269.24 79.73,269.79 L 86.96 270.26 L 87.58 273.88 C90.97,293.64 94.95,306.23 102.94,322.50 C125.71,368.84 167.64,400.83 219.24,411.20 C228.64,413.09 233.73,413.46 250.00,413.46 C266.27,413.46 271.36,413.09 280.76,411.20 C332.76,400.74 375.61,367.69 398.01,320.76 C405.17,305.75 409.19,292.67 412.42,273.88 L 413.04 270.26 L 420.35 269.79 C432.63,269.00 440.24,262.85 441.91,252.35 L 442.68 247.50 L 443.93 250.50 C445.66,254.68 444.60,260.99 441.02,267.79 C439.23,271.17 438.00,275.02 438.00,277.22 C438.00,283.47 431.36,307.49 426.37,319.32 C422.33,328.89 421.68,331.34 421.87,336.34 C422.32,348.46 417.02,358.22 407.57,362.62 C404.78,363.92 401.87,364.98 401.09,364.99 C400.32,365.00 395.82,368.80 391.09,373.45 C383.70,380.73 370.92,391.40 362.68,397.19 C360.86,398.47 360.10,400.19 359.58,404.19 C358.16,415.16 351.34,423.63 341.61,426.52 C334.60,428.61 332.24,428.41 321.97,424.88 C313.72,422.05 312.06,421.81 303.70,422.23 C289.35,422.96 284.50,425.26 273.13,436.74 C267.85,442.07 261.95,447.03 259.63,448.08 C254.16,450.57 243.90,450.59 238.50,448.14 ZM 433.57 232.22 C430.29,229.88 428.56,229.45 421.37,229.15 C413.74,228.83 412.95,228.60 412.54,226.65 C412.30,225.47 411.39,220.78 410.52,216.24 C406.76,196.60 395.87,171.75 383.26,154.00 C374.83,142.14 358.04,125.39 346.10,116.94 C291.46,78.25 222.01,75.52 164.50,109.80 C147.74,119.79 128.27,137.82 116.75,154.01 C104.14,171.73 93.24,196.60 89.48,216.24 C88.61,220.78 87.69,225.51 87.43,226.75 C87.00,228.84 86.43,229.00 79.56,229.00 C75.49,229.00 71.35,229.31 70.35,229.70 C69.20,230.14 69.74,229.12 71.80,226.95 C76.34,222.15 80.73,212.72 82.04,204.91 C83.29,197.49 82.20,188.96 79.07,181.67 C75.04,172.26 75.79,163.07 81.26,154.94 C84.32,150.38 92.92,145.34 99.06,144.49 C101.78,144.12 104.00,143.45 104.00,143.00 C104.00,142.55 104.91,142.43 106.03,142.72 C109.17,143.54 120.47,137.43 125.95,131.95 C131.99,125.92 136.70,116.58 138.05,108.00 C138.61,104.42 140.20,99.16 141.59,96.29 C147.08,84.92 160.65,79.29 172.43,83.49 C174.60,84.26 176.74,84.66 177.18,84.39 C177.63,84.11 178.00,84.34 178.00,84.89 C178.00,88.16 196.54,89.02 205.66,86.18 C214.97,83.27 218.68,80.55 230.50,67.97 C235.94,62.18 241.95,59.55 249.50,59.67 C258.17,59.80 262.20,62.01 271.91,72.02 C283.29,83.73 289.99,87.07 303.61,87.78 C312.34,88.24 313.65,88.04 322.13,85.01 C329.69,82.30 332.18,81.84 336.67,82.31 C346.44,83.31 355.85,90.92 358.26,99.75 C358.89,102.09 359.68,104.00 360.01,104.00 C360.33,104.00 360.42,105.52 360.20,107.38 C359.82,110.63 360.18,111.03 369.65,118.05 C375.07,122.05 383.99,129.76 389.49,135.17 C394.98,140.57 400.28,145.00 401.27,145.00 C404.54,145.00 412.75,149.87 415.89,153.68 C420.35,159.09 422.39,165.98 421.65,173.09 C421.23,177.05 421.43,179.32 422.27,180.22 C422.95,180.95 423.64,182.21 423.82,183.02 C423.99,183.84 425.65,188.32 427.50,193.00 C432.86,206.57 439.40,232.93 437.80,234.54 C437.57,234.76 435.67,233.72 433.57,232.22 ZM 255.89 141.37 C252.73,143.58 246.20,143.42 242.30,141.04 C238.35,138.63 236.00,131.61 236.00,122.18 C236.00,109.16 240.13,103.00 248.85,103.00 C257.99,103.00 261.96,109.05 261.96,123.00 C261.96,132.45 259.95,138.52 255.89,141.37 ZM 228.95 144.16 C227.05,145.08 223.59,146.13 221.26,146.50 C217.42,147.11 216.93,146.95 216.16,144.84 C214.50,140.28 208.73,108.94 209.43,108.24 C209.82,107.85 213.45,107.36 217.51,107.16 C224.33,106.82 225.07,106.98 227.44,109.35 C230.79,112.69 230.90,118.37 227.71,123.10 L 225.43 126.49 L 228.46 128.53 C231.91,130.84 234.04,136.14 233.07,139.94 C232.66,141.52 231.08,143.14 228.95,144.16 ZM 202.67 152.41 C202.34,153.28 200.99,154.00 199.68,154.00 C197.65,154.00 196.68,152.68 193.24,145.25 C188.32,134.60 187.01,130.03 187.01,123.44 C187.00,119.73 187.54,117.79 189.03,116.20 C193.42,111.49 199.02,112.70 202.97,119.20 C204.01,120.90 206.98,127.84 209.57,134.62 C213.46,144.81 214.06,147.22 213.02,148.48 C210.96,150.96 209.00,150.23 207.39,146.40 C206.15,143.43 205.50,142.90 203.69,143.38 C202.49,143.71 201.17,143.98 200.77,143.99 C200.36,143.99 200.76,145.53 201.66,147.41 C202.55,149.28 203.01,151.53 202.67,152.41 ZM 281.34 138.26 C281.51,146.89 280.70,148.27 276.80,145.96 C275.46,145.17 275.13,143.66 275.26,138.99 C275.50,130.26 273.56,129.22 271.85,137.16 C270.54,143.23 270.35,143.50 267.49,143.50 C266.57,143.50 265.89,143.54 265.44,143.22 C264.12,142.30 264.92,138.32 268.15,121.25 L 271.22 105.00 L 275.14 105.00 C280.16,105.00 285.29,107.15 287.37,110.12 C290.81,115.03 287.83,127.97 282.91,129.53 C281.43,130.00 281.20,131.28 281.34,138.26 ZM 186.07 161.44 C179.78,164.64 175.89,163.83 173.03,158.74 C169.83,153.04 176.14,149.58 179.96,154.94 C182.73,158.83 185.00,158.94 185.00,155.19 C185.00,150.06 182.90,148.51 175.83,148.44 C168.29,148.37 163.71,146.28 161.42,141.84 C159.38,137.91 159.34,132.65 161.33,129.63 C163.24,126.70 168.83,124.00 172.98,124.00 C179.38,124.00 184.93,133.36 180.07,135.96 C179.06,136.50 178.47,136.85 177.88,136.83 C176.91,136.80 175.98,135.77 173.29,132.95 C170.58,130.09 168.93,129.09 167.72,129.55 C163.90,131.02 166.85,141.23 171.61,143.04 C173.00,143.57 176.96,144.00 180.41,144.00 C187.96,144.00 189.98,145.65 190.75,152.45 C191.31,157.41 190.33,159.27 186.07,161.44 ZM 301.71 145.88 C300.30,149.13 298.78,152.01 298.32,152.28 C297.42,152.81 293.00,151.38 293.00,150.56 C293.00,150.27 294.13,147.03 295.52,143.35 L 298.04 136.65 L 295.39 133.88 C293.08,131.47 292.80,130.50 293.21,126.31 C293.48,123.66 294.72,119.14 295.97,116.25 C297.91,111.77 298.64,111.00 300.96,111.00 C302.45,111.00 303.93,111.26 304.24,111.58 C304.56,111.89 303.71,114.58 302.35,117.54 C297.85,127.38 298.30,134.00 303.46,134.00 C306.58,134.00 308.93,130.88 312.00,122.64 C314.24,116.63 314.76,115.97 317.00,116.22 C320.63,116.63 320.63,119.63 317.00,128.35 C313.87,135.86 311.79,138.12 306.89,139.33 C304.88,139.82 303.68,141.35 301.71,145.88 ZM 218.80 382.55 C215.88,391.27 213.05,398.53 212.50,398.68 C211.95,398.84 210.86,398.56 210.07,398.06 C208.69,397.19 209.18,393.91 211.62,387.54 C211.90,386.82 210.77,385.73 209.00,385.00 C205.70,383.63 203.00,379.53 203.00,375.87 C203.00,374.64 203.92,371.74 205.04,369.42 C207.76,363.80 211.50,362.19 217.88,363.88 C220.42,364.56 222.86,365.47 223.30,365.91 C223.74,366.34 221.71,373.83 218.80,382.55 ZM 345.77 365.94 C345.04,369.75 341.83,367.64 331.38,356.44 C325.40,350.03 320.50,344.20 320.50,343.48 C320.50,342.77 322.25,340.79 324.39,339.09 C331.02,333.82 338.71,335.65 342.38,343.38 C344.59,348.04 344.42,350.35 341.62,353.68 L 339.24 356.51 L 342.65 360.46 C344.53,362.63 345.93,365.10 345.77,365.94 ZM 322.12 160.00 C325.56,162.95 326.01,163.75 324.83,164.73 C323.71,165.66 322.33,165.29 318.24,162.95 C315.40,161.33 312.59,159.09 311.99,157.99 C310.28,154.79 311.85,149.58 317.17,140.71 C323.20,130.67 328.50,125.00 331.87,125.00 C335.36,125.00 344.00,130.77 344.00,133.10 C344.00,135.53 342.88,135.49 337.74,132.87 L 333.56 130.74 L 329.28 135.46 C326.93,138.07 325.00,140.59 325.00,141.07 C325.00,141.55 326.27,142.61 327.82,143.41 C331.91,145.52 333.60,147.80 332.16,149.24 C331.28,150.12 329.91,149.87 326.51,148.22 L 322.02 146.04 L 320.01 149.98 C318.90,152.15 318.00,154.49 318.00,155.18 C318.00,155.88 319.86,158.04 322.12,160.00 ZM 149.96 335.52 C148.39,336.33 145.54,337.00 143.63,337.00 C140.79,337.00 139.50,336.24 136.58,332.82 C134.61,330.52 133.00,328.30 133.00,327.88 C133.00,326.11 155.82,310.00 158.32,310.00 C161.59,310.00 161.42,313.00 157.99,315.87 C155.14,318.25 154.86,318.87 155.86,320.73 C158.63,325.91 156.05,332.37 149.96,335.52 ZM 303.74 379.43 C302.45,380.28 300.04,381.24 298.38,381.57 C292.46,382.76 286.00,374.43 286.00,365.62 C286.00,361.57 286.34,360.88 288.95,359.53 C290.57,358.69 293.02,358.00 294.39,358.00 C297.08,358.00 300.00,361.25 300.00,364.26 C300.00,365.79 300.32,365.90 302.11,364.94 C304.67,363.57 305.50,364.35 306.85,369.34 C308.09,373.91 307.06,377.26 303.74,379.43 ZM 161.87 354.56 C158.38,356.37 157.99,356.36 154.97,354.35 C149.72,350.86 148.60,346.61 151.46,341.07 C155.70,332.88 164.63,330.40 169.41,336.08 C173.10,340.46 172.79,344.12 168.33,349.06 C166.30,351.30 163.40,353.78 161.87,354.56 ZM 363.10 328.89 C360.09,332.12 359.22,332.35 354.94,331.05 C344.07,327.75 340.11,320.87 345.07,313.90 C346.76,311.53 347.86,311.00 351.13,311.00 C355.85,311.00 358.34,312.14 362.75,316.32 C367.02,320.36 367.13,324.57 363.10,328.89 ZM 128.38 295.71 C125.97,298.12 121.74,298.66 118.78,296.94 C116.35,295.52 114.61,288.60 116.02,285.96 C117.27,283.63 121.64,281.65 123.74,282.45 C126.18,283.39 124.86,288.34 122.00,289.01 C118.69,289.78 118.77,292.42 122.12,292.80 C125.34,293.18 128.00,290.71 128.00,287.36 C128.00,281.20 132.52,277.05 139.26,277.02 C143.58,277.00 144.22,277.31 146.01,280.25 C148.76,284.76 148.58,289.51 145.55,292.55 C144.20,293.90 142.43,295.00 141.63,295.00 C136.15,295.00 135.25,290.33 140.27,288.00 C145.05,285.78 144.71,282.60 139.65,282.18 C134.75,281.78 132.18,284.00 131.32,289.37 C130.97,291.60 129.65,294.44 128.38,295.71 ZM 246.65 137.51 C247.52,138.38 247.93,138.80 248.41,138.90 C248.87,138.99 249.40,138.78 250.46,138.38 C254.50,136.82 256.77,126.62 255.09,117.52 C253.93,111.25 251.81,108.00 248.87,108.00 C245.70,108.00 243.69,112.59 243.21,120.95 C242.74,129.01 243.95,134.80 246.65,137.51 ZM 265.26 387.93 C263.99,389.49 261.97,390.36 258.76,390.72 C254.55,391.20 253.80,390.95 251.05,388.20 C249.19,386.34 247.96,384.05 247.90,382.33 C247.68,375.69 248.25,371.35 249.63,369.20 C250.89,367.25 251.82,366.94 255.78,367.20 C259.63,367.45 260.69,367.96 261.94,370.18 C263.28,372.59 263.26,373.22 261.78,376.34 C260.60,378.82 259.24,380.01 257.06,380.49 C253.53,381.26 253.00,383.78 255.83,386.35 C259.43,389.60 261.14,388.11 261.97,381.00 C262.40,377.34 262.87,376.50 264.50,376.50 C267.36,376.50 267.91,384.66 265.26,387.93 ZM 375.46 305.85 C374.35,307.91 372.63,309.61 371.50,309.75 C369.65,309.98 357.80,306.23 355.10,304.56 C354.45,304.16 353.23,304.39 352.41,305.08 C351.15,306.12 350.80,305.96 350.32,304.12 C350.01,302.91 348.45,301.25 346.87,300.43 C343.44,298.66 342.90,295.00 346.07,295.00 C347.20,295.00 349.00,295.47 350.07,296.04 C351.68,296.90 352.20,296.65 353.16,294.54 C354.95,290.63 357.37,291.21 356.59,295.36 C355.97,298.65 356.06,298.76 361.86,301.36 C373.19,306.44 376.11,303.40 365.55,297.49 C361.12,295.01 359.28,293.44 359.66,292.44 C360.52,290.19 364.03,290.75 369.79,294.05 C376.69,298.01 378.09,300.92 375.46,305.85 ZM 240.75 393.75 C240.20,394.44 239.47,394.96 239.13,394.92 C237.32,394.69 236.00,393.69 236.00,392.54 C236.00,391.82 234.03,390.74 231.63,390.14 C225.87,388.69 224.49,385.59 225.48,376.33 C226.40,367.72 226.73,367.00 229.67,367.00 C231.99,367.00 232.09,367.23 231.49,371.25 C230.24,379.64 230.43,385.03 232.00,386.03 C234.38,387.55 236.78,383.71 237.49,377.22 C237.83,374.08 238.53,370.49 239.04,369.25 C240.01,366.88 242.42,366.25 243.55,368.08 C244.47,369.56 242.00,392.19 240.75,393.75 ZM 135.69 318.37 C131.66,320.37 127.58,322.00 126.64,322.00 C124.47,322.00 123.43,319.39 124.91,317.61 C125.71,316.64 125.74,315.46 125.02,313.56 C123.85,310.46 124.95,307.63 127.96,306.02 C131.07,304.36 132.98,304.82 136.21,308.05 L 139.26 311.11 L 141.63 308.88 C145.16,305.56 144.71,303.86 140.39,304.21 C137.79,304.42 136.45,304.00 135.64,302.72 C133.16,298.84 141.28,297.53 144.75,301.25 C150.38,307.28 147.64,312.47 135.69,318.37 ZM 380.00 287.00 C377.81,289.19 377.45,289.26 374.47,288.05 C371.40,286.80 369.69,284.26 369.78,281.06 C369.84,278.84 369.32,278.05 367.51,277.59 C362.40,276.31 359.75,280.19 364.50,282.00 C366.05,282.59 367.00,283.73 367.00,285.01 C367.00,287.83 364.49,288.55 361.49,286.59 C359.47,285.26 359.00,284.13 359.00,280.63 C359.00,273.85 361.07,272.60 371.24,273.24 C384.06,274.04 391.44,278.36 384.50,281.00 C383.12,281.52 382.00,282.64 382.00,283.48 C382.00,284.31 381.10,285.90 380.00,287.00 ZM 176.36 358.38 C172.81,362.02 169.23,365.00 168.42,365.00 C165.28,365.00 166.03,361.83 171.09,353.82 C178.04,342.79 178.48,342.33 180.50,344.00 C181.37,344.72 181.86,345.91 181.59,346.63 C181.29,347.42 182.47,348.60 184.55,349.59 C188.85,351.63 189.87,354.96 187.64,359.64 C185.76,363.57 183.61,364.75 181.51,363.01 C180.24,361.95 180.38,361.21 182.56,357.48 C186.68,350.46 183.66,350.90 176.36,358.38 ZM 320.82 369.24 C320.64,370.47 319.73,371.63 318.79,371.80 C317.43,372.06 316.95,371.11 316.42,367.10 C315.80,362.41 315.39,361.82 310.38,358.37 C307.42,356.33 305.00,354.35 305.00,353.96 C305.00,353.57 305.71,352.65 306.58,351.93 C307.82,350.90 308.57,350.88 310.07,351.81 C313.09,353.69 314.10,353.26 313.38,350.39 C312.95,348.67 313.20,347.49 314.11,346.91 C316.92,345.13 317.81,346.14 318.87,352.25 C319.95,358.42 320.71,359.58 326.04,363.11 C328.19,364.54 328.31,364.92 327.06,366.43 C326.15,367.52 324.84,367.93 323.39,367.56 C321.61,367.11 321.07,367.46 320.82,369.24 ZM 284.00 260.87 C286.18,261.74 286.35,261.86 284.72,261.92 C283.77,261.83 283.00,261.66 282.28,261.35 C280.85,260.60 279.28,259.21 277.99,257.62 C276.95,256.19 276.02,254.40 275.47,252.85 C275.11,251.19 274.97,249.69 275.17,249.50 L 296.25 250.12 C300.33,249.94 299.84,253.40 295.12,258.12 C293.76,259.48 292.77,260.37 291.81,260.95 C291.28,261.06 291.07,260.67 291.25,259.75 C291.57,258.16 285.68,257.52 283.27,258.87 C281.66,259.78 281.73,259.96 284.00,260.87 ZM 353.80 341.80 C353.14,342.46 352.13,342.98 351.55,342.96 C349.49,342.89 328.50,323.21 328.50,321.36 C328.50,316.88 332.59,318.93 343.79,329.03 C349.95,334.59 355.00,339.47 355.00,339.87 C355.00,340.27 354.46,341.14 353.80,341.80 ZM 177.31 215.64 C175.64,216.79 174.48,216.94 172.53,216.57 C170.88,216.26 170.03,216.20 169.33,216.81 C169.67,216.37 170.00,216.04 170.33,215.83 C170.89,215.47 171.43,211.87 171.53,207.83 C171.68,201.80 171.63,199.87 172.51,199.26 C173.00,198.92 173.79,199.00 175.07,199.00 C178.85,199.00 181.36,201.29 180.51,203.96 C180.17,205.04 180.36,206.81 180.94,207.89 C181.79,209.48 181.47,210.49 179.30,213.18 L 177.31 215.64 ZM 200.22 198.54 C199.97,198.93 200.07,199.56 200.24,200.50 C200.73,203.05 199.55,204.01 198.70,201.75 C198.38,200.90 198.00,201.06 197.51,202.25 C197.11,203.21 197.13,204.79 197.55,205.75 C197.97,206.71 198.25,207.82 198.17,208.21 C198.09,208.61 198.69,208.67 199.51,208.36 C201.39,207.64 201.42,209.04 199.59,211.54 C199.51,211.66 199.43,211.77 199.35,211.87 C199.09,211.65 198.27,211.58 197.20,211.72 C193.30,212.24 188.00,208.71 188.70,206.06 C188.99,204.92 188.68,203.32 188.00,202.49 C187.29,201.65 187.17,200.83 187.67,199.97 C188.61,199.67 189.55,199.22 190.47,198.61 C192.32,197.40 194.05,197.07 196.18,197.54 C198.52,198.05 199.12,197.89 198.76,196.86 C198.06,194.87 193.47,195.53 189.74,198.15 C189.27,198.48 188.88,198.74 188.56,198.95 C189.42,198.19 190.77,197.39 192.62,196.51 C196.99,194.44 198.97,195.11 199.12,198.72 C199.19,200.41 199.41,200.81 199.69,199.75 C199.83,199.21 199.96,198.81 200.22,198.54 ZM 196.02 134.83 C197.94,139.30 198.57,139.96 200.38,139.41 C201.55,139.06 202.80,138.49 203.17,138.14 C203.90,137.44 197.79,121.66 195.91,119.40 C195.28,118.63 194.30,118.00 193.74,118.00 C192.06,118.00 193.57,129.12 196.02,134.83 ZM 355.01 325.41 C359.41,327.32 359.49,327.32 361.04,325.45 C362.10,324.17 361.98,323.46 360.35,321.27 C357.75,317.79 351.64,314.66 349.04,315.49 C344.65,316.88 347.93,322.34 355.01,325.41 ZM 155.06 349.57 C156.57,351.39 156.64,351.39 160.53,348.98 C166.68,345.18 169.37,338.00 164.63,338.00 C159.66,338.00 152.57,346.57 155.06,349.57 ZM 274.38 124.25 C273.99,125.57 274.45,126.00 276.28,126.00 C281.43,126.00 284.82,117.42 281.60,112.52 C278.89,108.37 277.37,109.40 276.07,116.25 C275.42,119.69 274.66,123.29 274.38,124.25 ZM 140.30 331.40 C142.52,333.12 145.52,332.46 149.75,329.31 C153.20,326.75 154.03,323.33 151.43,322.34 C149.57,321.62 146.78,323.02 142.00,327.06 C138.72,329.83 138.61,330.10 140.30,331.40 ZM 331.10 348.60 C335.88,353.47 338.34,353.89 338.80,349.90 C339.20,346.44 334.18,341.00 330.57,341.00 C326.12,341.00 326.31,343.72 331.10,348.60 ZM 210.25 381.34 C210.94,381.62 211.86,381.88 212.30,381.92 C213.34,382.02 216.04,375.55 216.73,371.31 C217.22,368.27 217.05,368.00 214.66,368.00 C212.78,368.00 211.62,368.83 210.53,370.95 C208.68,374.51 208.52,380.64 210.25,381.34 ZM 217.53 118.37 C218.30,123.52 218.55,123.72 221.17,121.35 C223.20,119.51 223.54,115.89 221.96,112.93 C220.75,110.67 215.46,110.14 216.31,112.37 C216.60,113.13 217.15,115.83 217.53,118.37 ZM 296.06 376.06 C299.96,379.96 303.15,376.72 301.58,370.45 L 300.99 368.10 L 297.54 370.30 C293.47,372.89 293.35,373.35 296.06,376.06 ZM 221.07 136.91 C221.92,140.87 222.58,142.03 223.83,141.79 C227.14,141.16 226.44,133.84 222.90,131.95 C221.76,131.34 220.63,131.03 220.39,131.27 C220.15,131.51 220.46,134.05 221.07,136.91 ZM 182.57 208.43 C180.85,206.71 180.71,204.52 181.77,203.19 C181.74,203.25 181.71,203.30 181.69,203.36 C181.35,204.25 181.88,204.68 183.25,204.61 C184.40,204.55 185.52,203.94 185.75,203.25 C186.05,202.34 185.07,201.94 183.99,202.03 C184.15,202.01 184.32,202.00 184.49,202.00 C187.14,202.00 188.44,205.31 186.91,208.16 C185.71,210.41 184.62,210.48 182.57,208.43 ZM 253.77 376.44 C254.69,377.36 255.68,377.09 256.96,375.55 C258.35,373.87 257.38,369.71 255.72,370.26 C254.46,370.68 252.91,375.58 253.77,376.44 ZM 129.02 313.52 C129.90,314.58 130.71,314.69 132.11,313.94 C134.84,312.48 134.50,310.00 131.56,310.00 C128.57,310.00 127.42,311.60 129.02,313.52 ZM 374.00 282.50 C375.74,284.60 378.50,283.98 378.50,281.50 C378.50,279.29 375.38,278.22 373.74,279.86 C373.00,280.60 373.08,281.39 374.00,282.50 ZM 291.67 367.33 C293.37,369.03 295.12,367.88 294.82,365.26 C294.40,361.66 291.00,360.77 291.00,364.26 C291.00,365.58 291.30,366.97 291.67,367.33 ZM 191.79 211.53 C186.22,210.11 182.97,210.82 179.33,214.02 C179.27,214.07 179.21,214.12 179.15,214.17 L 179.61 213.75 C181.26,212.24 183.35,211.00 184.25,211.00 C185.15,211.00 186.15,210.56 186.49,210.02 C186.85,209.44 188.57,209.84 190.78,211.02 C191.12,211.20 191.46,211.37 191.79,211.53 ZM 188.13 198.40 C189.95,196.30 192.93,194.77 195.42,194.27 C194.01,194.62 192.42,195.37 190.90,196.47 C189.86,197.23 188.95,197.87 188.13,198.40 ZM 174.48 197.05 C176.18,197.05 178.14,197.66 179.85,198.83 C181.03,199.65 182.29,200.15 183.60,200.35 C182.38,200.42 181.32,199.94 180.01,199.01 C178.22,197.73 176.21,197.07 174.48,197.05 ZM 164.32 229.29 C163.76,231.15 163.29,232.06 163.14,231.60 C163.31,231.85 163.76,230.97 164.32,229.29 ZM 197.78 212.95 C197.73,212.96 197.67,212.97 197.61,212.97 C197.67,212.96 197.73,212.96 197.78,212.95 Z" fill="rgba(186,120,84,1)"/>
<path d="M 225.50 313.33 C226.84,311.50 235.34,310.74 238.49,312.18 C240.04,312.89 245.73,312.45 258.32,310.65 C268.03,309.27 276.43,307.85 276.99,307.51 C277.54,307.16 278.00,305.75 278.00,304.37 C278.00,303.38 277.89,302.77 277.59,302.47 C277.85,302.49 278.05,302.53 278.17,302.60 C278.65,302.90 278.95,302.78 278.83,302.32 C278.38,300.65 282.47,273.00 283.16,273.00 C283.56,273.00 284.16,273.45 284.50,274.00 C285.41,275.48 288.11,275.21 290.05,273.45 C291.00,272.60 293.28,271.81 295.13,271.70 C298.11,271.52 298.54,271.81 298.81,274.20 C299.01,275.95 299.90,277.14 301.31,277.58 C302.52,277.95 304.31,279.09 305.29,280.12 C307.28,282.21 308.58,282.49 309.49,281.02 C309.87,280.40 310.77,280.46 311.95,281.20 C313.42,282.12 314.35,282.00 316.45,280.63 C319.89,278.37 321.25,274.78 319.95,271.36 C319.03,268.95 319.46,268.19 324.84,262.58 C328.09,259.21 332.03,253.98 333.59,250.97 C336.09,246.17 336.47,244.28 336.68,235.50 C336.75,232.79 336.76,230.72 336.68,228.99 C336.80,230.05 336.88,231.14 336.91,232.23 C337.02,236.20 337.37,239.69 337.68,239.98 C337.98,240.26 338.05,236.45 337.81,231.50 C337.29,220.34 334.39,213.40 326.93,205.52 C317.37,195.41 307.44,191.50 293.08,192.18 C277.17,192.94 264.38,201.39 257.23,215.85 C253.75,222.88 253.50,224.01 253.50,232.45 C253.50,237.43 253.84,242.73 254.26,244.22 C254.86,246.36 254.72,246.83 253.60,246.40 C251.39,245.55 247.16,248.25 239.03,255.67 C234.24,260.05 232.37,261.35 233.81,259.30 C243.02,246.23 244.06,231.57 236.76,217.75 C231.01,206.86 218.76,198.68 206.27,197.37 C202.48,196.97 199.91,196.20 199.59,195.36 C198.53,192.60 191.11,194.69 187.93,198.64 C186.90,199.93 187.40,199.79 189.74,198.15 C193.47,195.53 198.06,194.87 198.76,196.86 C199.12,197.89 198.52,198.05 196.18,197.54 C194.05,197.07 192.32,197.40 190.47,198.61 C186.88,200.96 183.05,201.04 179.85,198.83 C177.51,197.22 174.69,196.68 172.72,197.31 C174.64,195.48 177.81,192.09 180.02,189.50 C192.83,174.49 210.58,163.94 230.61,159.42 C241.14,157.04 258.86,157.04 269.39,159.42 C300.91,166.53 325.80,188.18 336.97,218.23 C344.32,237.98 344.32,262.01 336.98,281.75 C326.21,310.72 301.15,333.11 271.88,339.93 C261.83,342.27 247.94,343.15 238.91,342.02 C200.65,337.23 169.06,309.01 159.85,271.38 C155.27,252.68 157.47,229.68 165.49,212.31 C167.42,208.13 169.00,203.83 169.00,202.74 C169.00,202.03 169.65,200.80 170.62,199.55 C170.23,201.10 170.00,203.74 170.00,206.87 C170.00,212.16 169.56,214.83 168.47,216.03 C166.54,218.17 162.97,228.23 163.09,231.23 C163.14,232.48 163.79,231.26 164.55,228.50 C164.89,227.26 165.36,225.78 165.85,224.34 C163.78,230.59 163.12,237.08 164.03,242.70 C165.33,250.66 170.11,259.93 175.50,264.89 C178.93,268.05 180.00,269.76 180.00,272.07 C180.00,273.97 180.94,276.03 182.54,277.63 C185.32,280.41 185.35,280.40 191.37,275.05 C194.18,272.55 194.22,272.54 193.55,274.75 C194.18,272.68 193.96,272.74 190.87,275.50 C189.02,277.15 187.28,278.68 187.00,278.91 C186.73,279.13 187.40,278.95 188.50,278.50 C189.60,278.04 192.20,277.76 194.27,277.86 C196.86,277.99 198.23,277.57 198.63,276.53 C199.03,275.48 200.67,274.98 203.86,274.93 C213.24,274.78 219.01,273.44 221.64,270.81 C223.96,268.49 224.02,268.22 222.37,267.59 C221.37,267.21 220.87,267.20 221.25,267.58 C222.53,268.86 220.02,271.84 217.11,272.48 C211.20,273.77 204.14,268.59 204.88,263.50 C204.92,263.21 204.95,262.97 204.96,262.77 C204.99,262.96 205.00,263.20 205.00,263.50 C205.00,264.98 205.27,265.13 206.20,264.20 C208.52,261.88 217.64,263.09 220.93,266.15 C222.99,268.06 223.04,268.06 226.53,265.29 C226.59,265.25 226.64,265.21 226.69,265.16 C225.13,266.84 224.25,268.00 224.59,268.00 C225.07,268.00 221.47,272.00 216.60,276.89 C211.56,281.96 208.05,286.26 208.43,286.89 C208.67,287.27 208.86,287.54 209.18,287.71 C208.19,288.10 207.99,289.16 207.64,292.00 C206.02,305.19 205.77,311.24 206.83,311.90 C207.27,312.17 209.45,312.15 212.11,311.97 C209.66,312.16 207.72,312.24 207.25,312.15 C205.89,311.89 205.54,314.19 206.75,315.44 C208.10,316.83 224.27,315.02 225.50,313.33 ZM 345.50 266.72 L 345.50 231.30 C346.81,232.42 353.28,232.60 386.01,233.00 C424.33,233.47 426.69,233.61 430.00,235.52 C433.82,237.73 438.00,244.77 438.00,249.00 C438.00,253.95 433.84,260.33 429.04,262.75 C424.64,264.97 424.04,265.00 385.40,265.00 C354.38,265.00 347.17,264.96 345.50,266.72 ZM 155.27 231.07 L 154.81 232.73 C154.21,234.89 153.94,243.51 154.16,253.23 L 154.47 266.69 C152.75,264.96 145.46,265.00 114.60,265.00 C75.96,265.00 75.36,264.97 70.96,262.75 C65.99,260.24 61.99,253.89 62.02,248.54 C62.04,244.23 65.89,237.97 70.00,235.56 C73.35,233.59 75.25,233.49 114.15,233.17 C152.20,232.87 154.71,232.78 155.27,231.07 ZM 225.76 299.25 C225.99,298.53 225.32,298.00 224.17,298.00 C223.79,298.00 223.43,298.02 223.09,298.05 C224.52,297.53 225.14,296.63 225.55,294.79 C225.93,293.06 225.74,291.34 225.10,290.70 C224.50,290.10 224.00,288.76 224.00,287.74 C224.00,286.07 223.50,285.96 219.25,286.67 C218.93,286.72 218.59,286.77 218.24,286.82 C223.23,285.98 224.85,285.27 225.56,283.66 C226.48,281.60 231.38,279.76 235.50,279.94 C243.36,280.28 248.11,280.25 253.62,279.41 C253.32,279.47 253.03,279.52 252.75,279.57 L 243.00 281.35 L 243.00 284.62 C243.00,286.41 242.61,288.12 242.13,288.42 C241.66,288.71 241.47,290.00 241.71,291.29 C241.98,292.65 241.51,294.16 240.59,294.92 C239.17,296.11 239.18,296.49 240.71,299.08 C241.90,301.09 242.67,301.68 244.16,301.46 C243.05,301.86 242.00,302.51 242.00,303.07 C242.00,303.70 242.90,303.99 243.90,303.98 C241.68,304.63 239.23,306.83 239.50,307.95 C238.62,307.42 235.75,307.00 232.80,307.00 C228.40,307.00 226.53,307.47 225.07,308.93 C224.80,309.20 224.48,309.44 224.10,309.67 C224.15,308.85 224.24,307.10 224.32,305.25 C224.48,301.49 224.25,301.00 222.31,301.00 C221.26,301.00 220.50,300.82 220.04,300.55 C221.50,301.31 225.32,300.59 225.76,299.25 ZM 229.46 296.51 L 229.41 307.00 L 232.54 307.00 C236.62,307.00 238.92,303.31 237.19,299.51 C236.41,297.80 236.36,296.20 237.02,294.44 C239.37,288.26 237.28,282.53 233.81,285.67 C232.78,286.61 232.00,286.83 232.00,286.19 C232.00,285.57 231.44,285.28 230.75,285.54 C229.86,285.88 229.49,289.08 229.46,296.51 ZM 314.68 258.65 C310.77,262.24 310.24,262.44 308.14,261.11 C305.19,259.24 310.77,252.00 315.17,252.00 C318.77,252.00 318.54,255.11 314.68,258.65 ZM 195.00 257.59 C195.00,257.79 193.31,258.82 191.23,259.88 C187.86,261.60 187.18,261.65 184.73,260.37 C178.03,256.85 184.47,252.23 191.45,255.54 C193.40,256.47 195.00,257.39 195.00,257.59 ZM 202.71 198.14 C201.70,198.08 201.08,198.18 200.73,198.55 C200.07,199.22 200.31,200.77 200.60,203.75 C200.79,205.67 200.85,207.13 200.75,208.29 C200.53,208.11 200.12,208.12 199.51,208.36 C198.69,208.67 198.09,208.61 198.17,208.21 C198.25,207.82 197.97,206.71 197.55,205.75 C197.13,204.79 197.11,203.21 197.51,202.25 C198.00,201.06 198.38,200.90 198.70,201.75 C199.55,204.01 200.73,203.05 200.24,200.50 C199.86,198.50 199.88,197.87 202.71,198.14 ZM 181.69 203.36 C182.35,201.64 186.32,201.53 185.75,203.25 C185.52,203.94 184.40,204.55 183.25,204.61 C181.88,204.68 181.35,204.25 181.69,203.36 ZM 409.26 270.00 L 377.38 270.00 L 345.50 270.00 L 345.50 269.26 C348.08,269.70 360.42,270.00 377.13,270.00 L 409.26 270.00 ZM 154.53 269.25 L 154.55 270.00 L 123.06 270.00 C139.73,270.00 152.03,269.70 154.53,269.25 ZM 123.92 229.00 L 155.84 229.00 L 155.33 230.84 C155.76,229.05 154.41,229.00 123.92,229.00 ZM 345.50 229.96 L 345.50 229.03 L 370.22 228.82 C351.82,228.99 346.71,229.18 345.50,229.96 ZM 250.64 307.50 C258.06,306.21 267.71,304.42 271.98,303.50 C265.51,305.07 257.21,306.59 250.64,307.50 ZM 235.56 254.26 C237.40,250.72 238.69,246.83 239.36,242.75 C239.11,246.72 238.44,248.63 236.65,252.28 C236.36,252.89 235.98,253.56 235.56,254.26 ZM 239.32 229.57 C238.52,224.87 236.88,220.48 234.54,216.58 C235.37,217.92 236.14,219.32 236.82,220.78 C238.38,224.10 239.05,226.07 239.32,229.57 ZM 282.81 270.35 C282.55,272.17 280.97,272.91 272.50,275.15 C270.39,275.71 267.78,276.35 265.06,276.97 C265.84,276.78 266.65,276.57 267.50,276.36 C280.65,272.98 282.54,272.23 282.81,270.35 ZM 325.15 205.09 C323.80,203.79 322.31,202.55 320.63,201.31 C317.67,199.13 314.56,197.38 311.31,196.07 C316.55,198.14 321.25,201.22 325.15,205.09 ZM 334.28 219.04 C333.18,216.41 332.03,214.11 330.76,212.05 C332.15,214.24 333.33,216.58 334.28,219.04 ZM 169.30 216.83 C168.67,217.42 168.14,218.59 167.22,220.73 C167.00,221.25 166.78,221.78 166.58,222.32 C166.95,221.32 167.31,220.43 167.62,219.74 C168.30,218.22 168.76,217.32 169.30,216.83 ZM 245.92 301.12 C246.74,301.03 247.01,301.27 246.86,301.90 C246.86,301.67 246.80,301.47 246.68,301.34 C246.52,301.19 246.25,301.12 245.92,301.12 ZM 200.14 210.74 C200.01,211.00 199.86,211.25 199.68,211.48 C199.08,212.28 198.66,212.74 198.04,212.91 C198.63,212.75 199.04,212.30 199.59,211.54 C199.80,211.26 199.98,210.99 200.14,210.74 ZM 204.39 262.31 C204.25,262.41 204.08,262.56 203.89,262.75 C203.69,262.94 203.43,263.13 203.14,263.29 C203.40,263.14 203.63,262.97 203.80,262.80 C204.04,262.56 204.23,262.40 204.39,262.31 Z" fill="rgba(202,168,147,1)"/>
<path d="M 279.95 291.34 C280.91,284.08 282.11,275.44 282.40,273.97 C282.59,272.96 281.24,272.96 275.37,274.37 C281.34,272.70 282.58,271.94 282.81,270.35 C283.21,267.49 274.04,258.50 263.79,251.69 C256.51,246.86 256.02,246.30 255.04,241.74 C249.93,217.91 268.17,194.64 293.09,193.20 C303.27,192.61 312.52,195.34 320.63,201.31 C327.30,206.23 331.10,211.24 334.54,219.66 C336.58,224.67 336.89,226.92 336.68,235.50 C336.47,244.28 336.09,246.17 333.59,250.97 C332.03,253.98 328.09,259.21 324.84,262.58 C319.46,268.19 319.03,268.95 319.95,271.36 C321.25,274.78 319.89,278.37 316.45,280.63 C314.35,282.00 313.42,282.12 311.95,281.20 C310.77,280.46 309.87,280.40 309.49,281.02 C308.58,282.49 307.28,282.21 305.29,280.12 C304.31,279.09 302.52,277.95 301.31,277.58 C299.90,277.14 299.01,275.95 298.81,274.20 C298.54,271.81 298.11,271.52 295.13,271.70 C293.28,271.81 291.00,272.60 290.05,273.45 C288.11,275.21 285.41,275.48 284.50,274.00 C284.16,273.45 283.56,273.00 283.16,273.00 C282.74,273.00 281.10,283.00 279.95,291.34 ZM 314.68 258.65 C317.28,256.27 318.23,254.08 317.48,252.90 C317.55,252.96 317.61,253.01 317.67,253.07 C318.44,253.84 319.57,251.89 321.62,246.32 C324.05,239.72 324.48,237.10 324.40,229.50 C324.23,215.51 321.59,210.67 311.50,205.86 C304.51,202.53 297.74,202.14 288.58,204.52 C281.32,206.41 280.29,207.02 282.37,208.19 C285.04,209.68 284.33,211.07 281.38,210.57 C284.50,210.38 284.76,209.48 282.00,208.00 C279.51,206.67 272.86,208.25 270.87,210.65 C269.66,212.12 269.77,212.20 272.01,211.39 C272.28,211.29 272.64,211.20 273.05,211.12 C270.63,211.98 268.67,213.39 267.98,215.06 C267.33,216.62 267.00,218.48 267.26,219.20 C267.51,219.91 267.27,221.62 266.74,223.00 C266.20,224.38 265.62,227.30 265.44,229.50 C265.26,231.70 265.36,232.60 265.66,231.50 C266.10,229.89 267.26,228.17 268.47,227.09 C266.17,229.46 264.72,235.12 266.37,237.79 C267.37,239.41 270.60,239.31 272.76,237.68 C271.87,238.51 270.77,239.01 269.60,239.03 C267.54,239.06 267.54,239.09 269.44,240.53 C270.51,241.34 270.83,242.00 270.16,242.00 C269.27,242.00 269.21,242.48 269.95,243.75 C272.65,248.39 273.71,248.96 280.90,249.63 C281.19,249.65 281.48,249.68 281.75,249.71 C278.32,249.40 275.36,249.31 275.17,249.50 C274.11,250.56 276.56,256.41 279.16,259.00 C281.61,261.45 282.98,262.00 286.69,262.00 C288.64,262.00 289.89,261.88 291.07,261.34 C290.90,261.44 290.72,261.52 290.55,261.59 C288.04,262.69 288.35,263.51 291.14,263.15 C291.50,263.11 292.34,264.41 293.01,266.04 C294.43,269.46 295.61,269.81 296.47,267.08 C297.06,265.24 302.12,262.61 306.00,262.12 C306.55,262.06 307.00,261.07 307.00,259.92 C307.00,259.34 307.26,258.62 307.70,257.85 C307.12,259.22 307.14,260.47 308.14,261.11 C310.24,262.44 310.77,262.24 314.68,258.65 ZM 182.54 277.63 C180.94,276.03 180.00,273.97 180.00,272.07 C180.00,269.76 178.93,268.05 175.50,264.89 C170.11,259.93 165.33,250.66 164.03,242.70 C162.94,235.98 164.10,228.03 167.22,220.73 C169.17,216.17 169.41,215.99 172.50,216.57 C174.82,217.00 176.00,216.73 178.21,214.97 C176.62,216.42 175.65,217.78 176.28,218.17 C177.09,218.68 177.00,219.63 175.95,221.59 C174.15,224.96 174.08,238.71 175.84,244.73 C177.74,251.26 180.69,254.13 185.85,254.44 C181.85,254.80 179.96,257.87 184.73,260.37 C186.79,261.44 187.59,261.58 189.79,260.59 C187.68,261.81 187.75,262.66 189.04,265.07 C190.06,266.98 192.00,267.73 192.00,266.21 C192.00,265.78 192.97,265.35 194.15,265.26 C196.30,265.10 199.33,263.00 197.41,263.00 C196.87,263.00 196.32,261.65 196.20,260.00 C196.01,257.52 196.31,257.06 197.96,257.31 C199.05,257.48 200.26,257.93 200.64,258.31 C201.76,259.43 205.49,259.10 206.95,257.75 C208.05,256.73 208.18,256.82 207.68,258.25 C207.34,259.21 207.50,260.00 208.03,260.00 C208.56,260.00 209.00,260.67 209.00,261.50 C209.00,262.45 209.96,263.00 211.61,263.00 C213.46,263.00 214.05,262.59 213.66,261.57 C213.29,260.60 214.02,259.93 215.91,259.52 C220.71,258.46 226.48,251.22 228.05,244.27 C228.69,241.46 228.52,241.00 226.87,241.00 C225.61,241.00 224.54,240.03 223.88,238.64 C225.13,241.24 229.05,241.89 230.74,239.75 C232.15,237.96 233.18,229.00 231.98,229.00 C231.44,229.00 231.00,229.68 231.00,230.51 C231.00,231.18 230.89,231.50 230.55,231.50 C230.66,231.10 230.76,230.66 230.87,230.19 C232.04,224.74 230.66,219.10 227.44,216.20 C225.79,214.70 225.80,214.79 227.53,216.90 L 229.50 219.29 L 228.71 218.88 C229.31,219.00 228.64,218.18 226.69,216.47 C224.32,214.38 221.60,213.61 218.87,214.22 C220.20,213.75 219.96,213.51 218.24,211.80 C217.11,210.67 212.98,209.04 208.72,208.05 L 201.19 206.30 L 200.71 208.70 C200.86,207.48 200.82,205.90 200.60,203.75 C200.31,200.77 200.07,199.22 200.73,198.55 C201.50,197.76 203.49,198.17 208.03,198.92 C226.06,201.87 238.94,216.19 239.83,234.27 C240.44,246.58 235.43,258.26 226.53,265.29 C223.04,268.06 222.99,268.06 220.93,266.15 C217.64,263.09 208.52,261.88 206.20,264.20 C205.27,265.13 205.00,264.98 205.00,263.50 C205.00,262.02 204.73,261.87 203.80,262.80 C203.14,263.46 201.76,264.00 200.73,264.00 C199.07,264.00 199.02,264.17 200.36,265.50 C201.18,266.33 202.30,267.00 202.85,267.00 C204.21,267.00 209.89,272.77 209.21,273.46 C208.91,273.75 206.55,274.00 203.96,274.00 C200.99,274.00 198.78,274.56 198.00,275.50 C197.32,276.33 195.88,277.00 194.81,277.00 C193.26,277.00 193.00,276.55 193.55,274.75 C194.22,272.54 194.18,272.55 191.37,275.05 C185.35,280.40 185.32,280.41 182.54,277.63 ZM 216.00 258.00 C216.00,258.55 215.55,259.00 215.00,259.00 C214.45,259.00 214.00,258.55 214.00,258.00 C214.00,257.45 214.45,257.00 215.00,257.00 C215.55,257.00 216.00,257.45 216.00,258.00 ZM 262.21 277.62 C257.47,278.72 252.93,279.67 250.35,280.09 L 246.55 280.70 L 252.75 279.57 C255.34,279.10 258.76,278.39 262.21,277.62 ZM 273.89 303.05 C275.76,302.50 277.60,302.25 277.98,302.48 C278.36,302.72 278.67,302.37 278.68,301.71 C278.68,301.35 278.93,299.29 279.29,296.43 C278.91,299.57 278.71,301.88 278.83,302.32 C278.95,302.78 278.65,302.90 278.17,302.60 C277.68,302.30 275.76,302.50 273.89,303.05 ZM 190.47 211.22 C191.50,211.44 192.62,211.73 193.84,212.11 C194.70,212.38 195.40,212.59 195.97,212.73 C194.89,212.61 193.60,212.26 192.05,211.71 C191.53,211.53 191.00,211.37 190.47,211.22 ZM 295.12 258.12 C296.75,256.48 297.88,255.00 298.49,253.76 C297.47,255.90 295.11,258.59 292.72,260.32 C293.42,259.77 294.18,259.06 295.12,258.12 ZM 228.40 235.00 C228.92,234.96 229.40,234.45 229.85,233.51 C229.94,234.45 229.45,235.00 228.50,235.00 C228.47,235.00 228.44,235.00 228.40,235.00 ZM 194.96 257.66 L 195.29 257.89 L 192.33 259.31 C193.71,258.56 194.76,257.91 194.96,257.66 ZM 226.12 230.33 C227.22,229.87 228.43,230.04 229.36,230.98 C229.36,230.99 229.37,230.99 229.38,231.00 C229.30,230.96 229.22,230.90 229.13,230.85 C228.06,230.18 227.02,230.06 226.12,230.33 ZM 274.92 233.39 C275.07,231.60 274.68,229.69 273.86,228.26 C274.56,229.38 275.00,230.80 275.00,232.24 C275.00,232.63 274.97,233.01 274.92,233.39 ZM 298.99 251.57 C298.83,250.59 297.92,250.05 296.25,250.12 C298.16,250.04 298.88,250.39 298.99,251.57 ZM 226.48 217.78 C224.98,217.27 222.46,217.00 220.39,217.16 C218.62,217.31 217.30,217.13 216.56,216.80 C217.33,217.13 218.67,217.30 220.42,217.16 C222.71,216.98 225.34,217.25 226.48,217.78 ZM 227.18 233.45 C227.45,232.12 228.22,231.56 228.87,231.79 C228.14,231.75 227.43,232.36 227.24,233.25 C227.13,233.75 227.17,234.17 227.34,234.47 C227.16,234.20 227.09,233.85 227.18,233.45 ZM 191.21 255.43 C191.93,255.69 192.55,255.97 192.97,256.27 L 193.16 256.40 C192.66,256.13 192.07,255.84 191.45,255.54 C191.37,255.51 191.29,255.47 191.21,255.43 ZM 179.66 213.74 C180.43,213.08 181.19,212.54 181.96,212.12 C181.18,212.60 180.39,213.16 179.66,213.74 ZM 314.94 252.01 C314.45,252.03 313.95,252.15 313.45,252.33 C313.91,252.12 314.35,252.00 314.72,252.00 C314.79,252.00 314.86,252.00 314.94,252.01 ZM 199.33 211.93 C199.44,211.79 199.56,211.64 199.68,211.48 C199.85,211.25 200.01,211.01 200.14,210.74 C199.92,211.23 199.66,211.62 199.33,211.93 Z" fill="rgba(238,204,51,1)"/>
<path d="M 293.01 266.04 C292.34,264.41 291.50,263.11 291.14,263.15 C288.35,263.51 288.04,262.69 290.55,261.59 C294.26,259.98 299.00,254.55 299.00,251.92 C299.00,250.46 298.34,250.03 296.25,250.12 C294.56,250.19 294.17,250.41 295.25,250.69 C296.91,251.12 297.32,251.79 296.85,252.48 C296.95,252.29 297.00,252.09 297.00,251.89 C297.00,251.07 295.06,250.88 290.47,251.25 C289.35,251.34 288.13,251.39 286.94,251.41 C287.02,251.36 287.09,251.31 287.15,251.25 C287.75,250.65 285.47,250.05 280.90,249.63 C273.71,248.96 272.65,248.39 269.95,243.75 C269.21,242.48 269.27,242.00 270.16,242.00 C270.83,242.00 270.51,241.34 269.44,240.53 C272.43,242.80 275.56,242.29 278.84,239.01 C281.87,235.98 284.33,228.32 283.32,225.10 C281.56,219.52 280.55,218.04 277.88,217.11 C271.98,215.05 267.18,219.11 265.76,226.99 C266.03,225.42 266.39,223.89 266.74,223.00 C267.27,221.62 267.51,219.91 267.26,219.20 C267.00,218.48 267.33,216.62 267.98,215.06 C269.36,211.71 275.92,209.38 280.90,210.48 C284.24,211.21 285.18,209.76 282.37,208.19 C280.29,207.02 281.32,206.41 288.58,204.52 C297.74,202.14 304.51,202.53 311.50,205.86 C321.59,210.67 324.23,215.51 324.40,229.50 C324.48,237.10 324.05,239.72 321.62,246.32 C319.57,251.89 318.44,253.84 317.67,253.07 C317.08,252.48 315.76,252.00 314.72,252.00 C312.20,252.00 307.00,257.33 307.00,259.92 C307.00,261.07 306.55,262.06 306.00,262.12 C302.12,262.61 297.06,265.24 296.47,267.08 C295.61,269.81 294.43,269.46 293.01,266.04 ZM 189.04 265.07 C187.44,262.09 187.72,261.50 191.65,259.63 L 195.29 257.89 L 192.97 256.27 C191.70,255.37 188.62,254.56 186.14,254.45 C180.79,254.23 177.77,251.38 175.84,244.73 C174.08,238.71 174.15,224.96 175.95,221.59 C177.00,219.63 177.09,218.68 176.28,218.17 C174.86,217.30 181.49,211.60 184.97,210.71 C186.35,210.35 189.46,210.79 192.05,211.71 C197.59,213.68 199.85,213.01 200.62,209.17 L 201.19 206.30 L 208.72 208.05 C212.98,209.04 217.11,210.67 218.24,211.80 C220.23,213.79 220.23,213.79 218.12,214.46 C214.18,215.71 215.71,217.54 220.39,217.16 C222.81,216.97 225.85,217.37 227.14,218.05 L 229.50 219.29 L 227.53 216.90 C225.80,214.79 225.79,214.70 227.44,216.20 C230.66,219.10 232.04,224.74 230.87,230.19 C230.78,230.59 230.69,230.96 230.60,231.31 C231.11,228.51 230.79,227.40 228.95,225.44 C226.27,222.59 221.00,222.15 218.57,224.57 C214.79,228.35 215.50,236.66 220.00,241.15 C223.14,244.30 226.10,244.80 228.00,242.50 C228.16,242.31 228.29,242.14 228.39,241.99 C228.42,242.49 228.29,243.21 228.05,244.27 C226.48,251.22 220.71,258.46 215.91,259.52 C214.02,259.93 213.29,260.60 213.66,261.57 C214.05,262.59 213.46,263.00 211.61,263.00 C209.96,263.00 209.00,262.45 209.00,261.50 C209.00,260.67 208.56,260.00 208.03,260.00 C207.50,260.00 207.34,259.21 207.68,258.25 C208.18,256.82 208.05,256.73 206.95,257.75 C205.49,259.10 201.76,259.43 200.64,258.31 C200.26,257.93 199.05,257.48 197.96,257.31 C196.31,257.06 196.01,257.52 196.20,260.00 C196.32,261.65 196.87,263.00 197.41,263.00 C199.33,263.00 196.30,265.10 194.15,265.26 C192.97,265.35 192.00,265.78 192.00,266.21 C192.00,267.73 190.06,266.98 189.04,265.07 ZM 294.88 241.36 C293.67,239.90 293.76,239.79 295.71,240.41 C296.67,240.71 297.70,240.53 298.65,240.02 C297.70,240.54 296.66,240.72 295.70,240.43 C293.54,239.76 293.54,239.80 295.92,242.38 C299.23,245.95 303.04,245.80 306.90,241.95 C312.68,236.16 313.44,226.35 308.48,221.39 C304.23,217.14 297.69,218.84 294.49,225.01 C293.46,227.01 292.96,228.46 293.00,229.16 C292.88,229.17 292.78,229.16 292.70,229.14 C292.26,229.05 292.00,231.22 292.13,233.98 C292.25,236.74 292.80,239.00 293.35,239.00 C293.89,239.00 294.04,239.30 293.68,239.66 C293.04,240.29 294.72,243.00 295.74,243.00 C296.02,243.00 295.63,242.26 294.88,241.36 ZM 206.96 245.07 C208.14,242.87 208.32,236.02 207.37,235.44 C207.66,234.73 206.94,232.87 205.28,231.05 C199.63,224.85 192.43,226.63 191.07,234.56 C190.36,238.72 192.47,244.19 195.77,246.75 C199.04,249.29 201.08,248.08 200.20,244.53 C201.63,247.55 205.47,247.87 206.96,245.07 ZM 314.51 216.02 C313.66,214.38 311.65,212.35 310.03,211.52 C306.68,209.78 302.00,209.50 302.00,211.03 C302.00,212.11 302.73,212.45 307.20,213.42 C308.69,213.75 311.16,215.12 312.70,216.48 C316.28,219.62 316.36,219.60 314.51,216.02 ZM 193.01 222.99 C195.16,221.90 197.61,221.00 198.46,221.00 C199.31,221.00 200.00,220.55 200.00,220.00 C200.00,219.45 198.54,219.00 196.75,219.00 C192.91,219.01 188.45,222.40 187.54,226.00 C187.01,228.10 187.08,228.22 188.01,226.74 C188.61,225.78 190.87,224.09 193.01,222.99 ZM 216.00 258.00 C216.00,257.45 215.55,257.00 215.00,257.00 C214.45,257.00 214.00,257.45 214.00,258.00 C214.00,258.55 214.45,259.00 215.00,259.00 C215.55,259.00 216.00,258.55 216.00,258.00 ZM 292.09 254.60 C290.83,254.85 289.40,255.00 287.90,255.00 C286.84,255.00 285.63,254.86 284.42,254.62 C286.98,254.99 289.79,254.96 292.09,254.60 ZM 200.38 235.89 C201.05,234.88 201.96,234.21 202.96,234.09 C202.06,234.34 201.11,234.99 200.38,235.89 ZM 278.72 252.76 C277.67,252.21 277.00,251.65 277.00,251.17 C277.00,251.05 277.09,250.95 277.25,250.88 C276.76,251.21 277.24,251.92 278.72,252.76 ZM 223.59 233.22 C222.86,235.29 223.23,237.67 224.21,239.25 C223.19,237.70 222.84,235.36 223.59,233.22 ZM 206.41 235.60 C206.06,235.56 205.72,235.35 205.51,235.02 C205.51,235.01 205.50,235.01 205.50,235.00 C205.85,235.29 206.15,235.48 206.41,235.60 ZM 228.36 235.00 L 228.34 235.00 C227.87,235.00 227.53,234.81 227.34,234.48 C227.53,234.81 227.88,234.99 228.36,235.00 ZM 300.53 230.37 C300.77,230.25 300.84,230.02 300.72,229.67 C300.69,229.58 300.66,229.49 300.61,229.41 C300.66,229.49 300.70,229.58 300.73,229.67 C300.84,230.02 300.77,230.25 300.53,230.37 Z" fill="rgba(244,216,67,1)"/>
<path d="M 241.00 410.40 C213.52,407.22 195.36,402.06 176.24,392.01 C134.49,370.06 104.98,332.33 94.52,287.50 C93.23,282.00 91.95,275.81 91.66,273.75 L 91.13 270.00 L 122.84 270.00 L 154.55 270.00 L 154.16 253.23 C153.94,243.51 154.21,234.89 154.81,232.73 L 155.84 229.00 L 123.92 229.00 L 92.00 229.00 L 92.00 225.75 C92.00,221.11 96.32,203.97 99.99,194.00 C117.21,147.27 157.33,110.13 206.00,95.86 C232.14,88.20 268.81,88.20 295.00,95.86 C343.45,110.03 383.67,147.72 400.81,195.00 C404.62,205.53 407.82,218.05 408.21,224.00 L 408.50 228.50 L 377.00 228.76 L 345.50 229.03 L 345.50 249.51 L 345.50 270.00 L 377.38 270.00 L 409.26 270.00 L 408.57 275.25 C405.11,301.81 389.65,334.61 370.48,356.04 C340.44,389.62 300.58,408.42 255.30,410.35 C249.36,410.60 242.93,410.62 241.00,410.40 ZM 218.80 382.55 C221.71,373.83 223.74,366.34 223.30,365.91 C222.86,365.47 220.42,364.56 217.88,363.88 C211.50,362.19 207.76,363.80 205.04,369.42 C203.92,371.74 203.00,374.64 203.00,375.87 C203.00,379.53 205.70,383.63 209.00,385.00 C210.77,385.73 211.90,386.82 211.62,387.54 C209.18,393.91 208.69,397.19 210.07,398.06 C210.86,398.56 211.95,398.84 212.50,398.68 C213.05,398.53 215.88,391.27 218.80,382.55 ZM 240.75 393.75 C242.00,392.19 244.47,369.56 243.55,368.08 C242.42,366.25 240.01,366.88 239.04,369.25 C238.53,370.49 237.83,374.08 237.49,377.22 C236.78,383.71 234.38,387.55 232.00,386.03 C230.43,385.03 230.24,379.64 231.49,371.25 C232.09,367.23 231.99,367.00 229.67,367.00 C226.73,367.00 226.40,367.72 225.48,376.33 C224.49,385.59 225.87,388.69 231.63,390.14 C234.03,390.74 236.00,391.82 236.00,392.54 C236.00,393.69 237.32,394.69 239.13,394.92 C239.47,394.96 240.20,394.44 240.75,393.75 ZM 265.26 387.93 C267.91,384.66 267.36,376.50 264.50,376.50 C262.87,376.50 262.40,377.34 261.97,381.00 C261.14,388.11 259.43,389.60 255.83,386.35 C253.00,383.78 253.53,381.26 257.06,380.49 C259.24,380.01 260.60,378.82 261.78,376.34 C263.26,373.22 263.28,372.59 261.94,370.18 C260.69,367.96 259.63,367.45 255.78,367.20 C251.82,366.94 250.89,367.25 249.63,369.20 C248.25,371.35 247.68,375.69 247.90,382.33 C247.96,384.05 249.19,386.34 251.05,388.20 C253.80,390.95 254.55,391.20 258.76,390.72 C261.97,390.36 263.99,389.49 265.26,387.93 ZM 303.74 379.43 C307.06,377.26 308.09,373.91 306.85,369.34 C305.50,364.35 304.67,363.57 302.11,364.94 C300.32,365.90 300.00,365.79 300.00,364.26 C300.00,361.25 297.08,358.00 294.39,358.00 C293.02,358.00 290.57,358.69 288.95,359.53 C286.34,360.88 286.00,361.57 286.00,365.62 C286.00,374.43 292.46,382.76 298.38,381.57 C300.04,381.24 302.45,380.28 303.74,379.43 ZM 320.82 369.24 C321.07,367.46 321.61,367.11 323.39,367.56 C324.84,367.93 326.15,367.52 327.06,366.43 C328.31,364.92 328.19,364.54 326.04,363.11 C320.71,359.58 319.95,358.42 318.87,352.25 C317.81,346.14 316.92,345.13 314.11,346.91 C313.20,347.49 312.95,348.67 313.38,350.39 C314.10,353.26 313.09,353.69 310.07,351.81 C308.57,350.88 307.82,350.90 306.58,351.93 C305.71,352.65 305.00,353.57 305.00,353.96 C305.00,354.35 307.42,356.33 310.38,358.37 C315.39,361.82 315.80,362.41 316.42,367.10 C316.95,371.11 317.43,372.06 318.79,371.80 C319.73,371.63 320.64,370.47 320.82,369.24 ZM 345.77 365.94 C345.93,365.10 344.53,362.63 342.65,360.46 L 339.24 356.51 L 341.62 353.68 C344.42,350.35 344.59,348.04 342.38,343.38 C338.71,335.65 331.02,333.82 324.39,339.09 C322.25,340.79 320.50,342.77 320.50,343.48 C320.50,344.20 325.40,350.03 331.38,356.44 C341.83,367.64 345.04,369.75 345.77,365.94 ZM 176.36 358.38 C183.66,350.90 186.68,350.46 182.56,357.48 C180.38,361.21 180.24,361.95 181.51,363.01 C183.61,364.75 185.76,363.57 187.64,359.64 C189.87,354.96 188.85,351.63 184.55,349.59 C182.47,348.60 181.29,347.42 181.59,346.63 C181.86,345.91 181.37,344.72 180.50,344.00 C178.48,342.33 178.04,342.79 171.09,353.82 C166.03,361.83 165.28,365.00 168.42,365.00 C169.23,365.00 172.81,362.02 176.36,358.38 ZM 161.87 354.56 C163.40,353.78 166.30,351.30 168.33,349.06 C172.79,344.12 173.10,340.46 169.41,336.08 C164.63,330.40 155.70,332.88 151.46,341.07 C148.60,346.61 149.72,350.86 154.97,354.35 C157.99,356.36 158.38,356.37 161.87,354.56 ZM 271.88 339.93 C301.15,333.11 326.21,310.72 336.98,281.75 C344.32,262.01 344.32,237.98 336.97,218.23 C325.80,188.18 300.91,166.53 269.39,159.42 C258.86,157.04 241.14,157.04 230.61,159.42 C210.58,163.94 192.83,174.49 180.02,189.50 C177.67,192.25 174.23,195.91 172.37,197.63 C170.52,199.36 169.00,201.66 169.00,202.74 C169.00,203.83 167.42,208.13 165.49,212.31 C157.47,229.68 155.27,252.68 159.85,271.38 C169.06,309.01 200.65,337.23 238.91,342.02 C247.94,343.15 261.83,342.27 271.88,339.93 ZM 353.80 341.80 C354.46,341.14 355.00,340.27 355.00,339.87 C355.00,339.47 349.95,334.59 343.79,329.03 C332.59,318.93 328.50,316.88 328.50,321.36 C328.50,323.21 349.49,342.89 351.55,342.96 C352.13,342.98 353.14,342.46 353.80,341.80 ZM 149.96 335.52 C156.05,332.37 158.63,325.91 155.86,320.73 C154.86,318.87 155.14,318.25 157.99,315.87 C161.42,313.00 161.59,310.00 158.32,310.00 C155.82,310.00 133.00,326.11 133.00,327.88 C133.00,328.30 134.61,330.52 136.58,332.82 C139.50,336.24 140.79,337.00 143.63,337.00 C145.54,337.00 148.39,336.33 149.96,335.52 ZM 363.10 328.89 C367.13,324.57 367.02,320.36 362.75,316.32 C358.34,312.14 355.85,311.00 351.13,311.00 C347.86,311.00 346.76,311.53 345.07,313.90 C340.11,320.87 344.07,327.75 354.94,331.05 C359.22,332.35 360.09,332.12 363.10,328.89 ZM 135.69 318.37 C147.64,312.47 150.38,307.28 144.75,301.25 C141.28,297.53 133.16,298.84 135.64,302.72 C136.45,304.00 137.79,304.42 140.39,304.21 C144.71,303.86 145.16,305.56 141.63,308.88 L 139.26 311.11 L 136.21 308.05 C132.98,304.82 131.07,304.36 127.96,306.02 C124.95,307.63 123.85,310.46 125.02,313.56 C125.74,315.46 125.71,316.64 124.91,317.61 C123.43,319.39 124.47,322.00 126.64,322.00 C127.58,322.00 131.66,320.37 135.69,318.37 ZM 375.46 305.85 C378.09,300.92 376.69,298.01 369.79,294.05 C364.03,290.75 360.52,290.19 359.66,292.44 C359.28,293.44 361.12,295.01 365.55,297.49 C376.11,303.40 373.19,306.44 361.86,301.36 C356.06,298.76 355.97,298.65 356.59,295.36 C357.37,291.21 354.95,290.63 353.16,294.54 C352.20,296.65 351.68,296.90 350.07,296.04 C349.00,295.47 347.20,295.00 346.07,295.00 C342.90,295.00 343.44,298.66 346.87,300.43 C348.45,301.25 350.01,302.91 350.32,304.12 C350.80,305.96 351.15,306.12 352.41,305.08 C353.23,304.39 354.45,304.16 355.10,304.56 C357.80,306.23 369.65,309.98 371.50,309.75 C372.63,309.61 374.35,307.91 375.46,305.85 ZM 128.38 295.71 C129.65,294.44 130.97,291.60 131.32,289.37 C132.18,284.00 134.75,281.78 139.65,282.18 C144.71,282.60 145.05,285.78 140.27,288.00 C135.25,290.33 136.15,295.00 141.63,295.00 C142.43,295.00 144.20,293.90 145.55,292.55 C148.58,289.51 148.76,284.76 146.01,280.25 C144.22,277.31 143.58,277.00 139.26,277.02 C132.52,277.05 128.00,281.20 128.00,287.36 C128.00,290.71 125.34,293.18 122.12,292.80 C118.77,292.42 118.69,289.78 122.00,289.01 C124.86,288.34 126.18,283.39 123.74,282.45 C121.64,281.65 117.27,283.63 116.02,285.96 C114.61,288.60 116.35,295.52 118.78,296.94 C121.74,298.66 125.97,298.12 128.38,295.71 ZM 380.00 287.00 C381.10,285.90 382.00,284.31 382.00,283.48 C382.00,282.64 383.12,281.52 384.50,281.00 C391.44,278.36 384.06,274.04 371.24,273.24 C361.07,272.60 359.00,273.85 359.00,280.63 C359.00,284.13 359.47,285.26 361.49,286.59 C364.49,288.55 367.00,287.83 367.00,285.01 C367.00,283.73 366.05,282.59 364.50,282.00 C359.75,280.19 362.40,276.31 367.51,277.59 C369.32,278.05 369.84,278.84 369.78,281.06 C369.69,284.26 371.40,286.80 374.47,288.05 C377.45,289.26 377.81,289.19 380.00,287.00 ZM 322.12 160.00 C319.86,158.04 318.00,155.88 318.00,155.18 C318.00,154.49 318.90,152.15 320.01,149.98 L 322.02 146.04 L 326.51 148.22 C329.91,149.87 331.28,150.12 332.16,149.24 C333.60,147.80 331.91,145.52 327.82,143.41 C326.27,142.61 325.00,141.55 325.00,141.07 C325.00,140.59 326.93,138.07 329.28,135.46 L 333.56 130.74 L 337.74 132.87 C342.88,135.49 344.00,135.53 344.00,133.10 C344.00,130.77 335.36,125.00 331.87,125.00 C328.50,125.00 323.20,130.67 317.17,140.71 C311.85,149.58 310.28,154.79 311.99,157.99 C312.59,159.09 315.40,161.33 318.24,162.95 C322.33,165.29 323.71,165.66 324.83,164.73 C326.01,163.75 325.56,162.95 322.12,160.00 ZM 186.07 161.44 C190.33,159.27 191.31,157.41 190.75,152.45 C189.98,145.65 187.96,144.00 180.41,144.00 C176.96,144.00 173.00,143.57 171.61,143.04 C166.85,141.23 163.90,131.02 167.72,129.55 C168.93,129.09 170.58,130.09 173.29,132.95 C177.61,137.48 177.41,137.39 180.07,135.96 C184.93,133.36 179.38,124.00 172.98,124.00 C168.83,124.00 163.24,126.70 161.33,129.63 C159.34,132.65 159.38,137.91 161.42,141.84 C163.71,146.28 168.29,148.37 175.83,148.44 C182.90,148.51 185.00,150.06 185.00,155.19 C185.00,158.94 182.73,158.83 179.96,154.94 C176.14,149.58 169.83,153.04 173.03,158.74 C175.89,163.83 179.78,164.64 186.07,161.44 ZM 202.67 152.41 C203.01,151.53 202.55,149.28 201.66,147.41 C200.76,145.53 200.36,143.99 200.77,143.99 C201.17,143.98 202.49,143.71 203.69,143.38 C205.50,142.90 206.15,143.43 207.39,146.40 C209.00,150.23 210.96,150.96 213.02,148.48 C214.06,147.22 213.46,144.81 209.57,134.62 C206.98,127.84 204.01,120.90 202.97,119.20 C199.02,112.70 193.42,111.49 189.03,116.20 C187.54,117.79 187.00,119.73 187.01,123.44 C187.01,130.03 188.32,134.60 193.24,145.25 C196.68,152.68 197.65,154.00 199.68,154.00 C200.99,154.00 202.34,153.28 202.67,152.41 ZM 301.71 145.88 C303.68,141.35 304.88,139.82 306.89,139.33 C311.79,138.12 313.87,135.86 317.00,128.35 C320.63,119.63 320.63,116.63 317.00,116.22 C314.76,115.97 314.24,116.63 312.00,122.64 C308.93,130.88 306.58,134.00 303.46,134.00 C298.30,134.00 297.85,127.38 302.35,117.54 C303.71,114.58 304.56,111.89 304.24,111.58 C303.93,111.26 302.45,111.00 300.96,111.00 C298.64,111.00 297.91,111.77 295.97,116.25 C294.72,119.14 293.48,123.66 293.21,126.31 C292.80,130.50 293.08,131.47 295.39,133.88 L 298.04 136.65 L 295.52 143.35 C294.13,147.03 293.00,150.27 293.00,150.56 C293.00,151.38 297.42,152.81 298.32,152.28 C298.78,152.01 300.30,149.13 301.71,145.88 ZM 228.95 144.16 C231.08,143.14 232.66,141.52 233.07,139.94 C234.04,136.14 231.91,130.84 228.46,128.53 L 225.43 126.49 L 227.71 123.10 C230.90,118.37 230.79,112.69 227.44,109.35 C225.07,106.98 224.33,106.82 217.51,107.16 C213.45,107.36 209.82,107.85 209.43,108.24 C208.73,108.94 214.50,140.28 216.16,144.84 C216.93,146.95 217.42,147.11 221.26,146.50 C223.59,146.13 227.05,145.08 228.95,144.16 ZM 281.34 138.26 C281.20,131.28 281.43,130.00 282.91,129.53 C287.83,127.97 290.81,115.03 287.37,110.12 C285.29,107.15 280.16,105.00 275.14,105.00 L 271.22 105.00 L 268.15 121.25 C263.83,144.06 263.85,143.50 267.49,143.50 C270.35,143.50 270.54,143.23 271.85,137.16 C273.56,129.22 275.50,130.26 275.26,138.99 C275.13,143.66 275.46,145.17 276.80,145.96 C280.70,148.27 281.51,146.89 281.34,138.26 ZM 255.89 141.37 C259.95,138.52 261.96,132.45 261.96,123.00 C261.96,109.05 257.99,103.00 248.85,103.00 C240.13,103.00 236.00,109.16 236.00,122.18 C236.00,131.61 238.35,138.63 242.30,141.04 C246.20,143.42 252.73,143.58 255.89,141.37 ZM 210.25 381.34 C208.52,380.64 208.68,374.51 210.53,370.95 C211.62,368.83 212.78,368.00 214.66,368.00 C217.05,368.00 217.22,368.27 216.73,371.31 C216.04,375.55 213.34,382.02 212.30,381.92 C211.86,381.88 210.94,381.62 210.25,381.34 ZM 253.77 376.44 C252.91,375.58 254.46,370.68 255.72,370.26 C257.38,369.71 258.35,373.87 256.96,375.55 C255.68,377.09 254.69,377.36 253.77,376.44 ZM 296.06 376.06 C293.35,373.35 293.47,372.89 297.54,370.30 L 300.99 368.10 L 301.58 370.45 C303.15,376.72 299.96,379.96 296.06,376.06 ZM 291.67 367.33 C291.30,366.97 291.00,365.58 291.00,364.26 C291.00,360.77 294.40,361.66 294.82,365.26 C295.12,367.88 293.37,369.03 291.67,367.33 ZM 331.10 348.60 C326.31,343.72 326.12,341.00 330.57,341.00 C334.18,341.00 339.20,346.44 338.80,349.90 C338.34,353.89 335.88,353.47 331.10,348.60 ZM 155.06 349.57 C152.57,346.57 159.66,338.00 164.63,338.00 C169.37,338.00 166.68,345.18 160.53,348.98 C156.64,351.39 156.57,351.39 155.06,349.57 ZM 206.83 311.90 C205.77,311.24 206.02,305.19 207.64,292.00 C208.16,287.74 208.36,287.50 211.35,287.48 C213.08,287.46 216.64,287.10 219.25,286.67 C223.50,285.96 224.00,286.07 224.00,287.74 C224.00,288.76 224.50,290.10 225.10,290.70 C225.74,291.34 225.93,293.06 225.55,294.79 C225.04,297.09 224.20,297.91 221.88,298.37 C218.54,299.04 218.86,301.00 222.31,301.00 C224.25,301.00 224.48,301.49 224.32,305.25 C224.22,307.59 224.11,309.77 224.07,310.11 C223.96,311.04 208.10,312.68 206.83,311.90 ZM 239.58 308.13 C238.89,307.01 241.94,304.31 244.42,303.85 C245.47,303.66 246.54,302.87 246.80,302.11 C247.14,301.08 246.63,300.88 244.83,301.33 C242.88,301.82 242.06,301.37 240.71,299.08 C239.18,296.49 239.17,296.11 240.59,294.92 C241.51,294.16 241.98,292.65 241.71,291.29 C241.47,290.00 241.66,288.71 242.13,288.42 C242.61,288.12 243.00,286.40 243.00,284.58 L 243.00 281.27 L 250.35 280.09 C254.40,279.44 263.33,277.45 270.20,275.67 C280.48,273.02 282.64,272.71 282.40,273.97 C281.90,276.51 278.69,300.41 278.68,301.71 C278.67,302.37 278.36,302.72 277.98,302.48 C277.60,302.25 275.76,302.50 273.89,303.05 C270.73,303.97 242.94,309.00 241.00,309.00 C240.51,309.00 239.88,308.61 239.58,308.13 ZM 273.45 293.87 C274.00,293.36 272.75,293.01 270.45,293.01 C265.45,293.03 261.87,293.97 262.55,295.09 C263.19,296.11 272.09,295.12 273.45,293.87 ZM 259.25 289.34 C259.66,289.09 260.00,288.43 260.00,287.88 C260.00,287.26 258.17,287.12 255.25,287.49 C247.50,288.50 245.88,288.99 246.58,290.13 C247.20,291.13 257.35,290.50 259.25,289.34 ZM 277.45 279.87 C278.01,279.36 276.97,279.01 274.95,279.01 C270.36,279.03 266.89,280.02 267.57,281.12 C268.21,282.15 276.05,281.16 277.45,279.87 ZM 229.46 296.51 C229.49,289.08 229.86,285.88 230.75,285.54 C231.44,285.28 232.00,285.57 232.00,286.19 C232.00,286.83 232.78,286.61 233.81,285.67 C237.28,282.53 239.37,288.26 237.02,294.44 C236.36,296.20 236.41,297.80 237.19,299.51 C238.92,303.31 236.62,307.00 232.54,307.00 L 229.41 307.00 L 229.46 296.51 ZM 280.25 253.51 C275.90,251.62 276.04,249.99 280.47,250.99 C282.38,251.42 286.88,251.54 290.47,251.25 C295.06,250.88 297.00,251.07 297.00,251.89 C297.00,254.92 285.96,255.99 280.25,253.51 ZM 195.77 246.75 C192.47,244.19 190.36,238.72 191.07,234.56 C192.43,226.63 199.63,224.85 205.28,231.05 C208.04,234.08 208.19,237.23 205.46,234.97 C201.65,231.80 197.68,237.68 199.82,243.32 C201.50,247.77 199.39,249.56 195.77,246.75 ZM 295.92 242.38 C293.54,239.80 293.54,239.76 295.70,240.43 C298.54,241.30 302.00,237.98 302.00,234.38 C302.00,232.19 301.76,231.96 300.54,232.96 C298.83,234.38 297.00,233.54 297.00,231.32 C297.00,230.24 297.63,229.93 299.06,230.30 C300.36,230.65 300.97,230.42 300.73,229.67 C300.18,228.02 296.17,227.62 294.44,229.05 C292.49,230.66 292.52,228.83 294.49,225.01 C297.69,218.84 304.23,217.14 308.48,221.39 C313.44,226.35 312.68,236.16 306.90,241.95 C303.04,245.80 299.23,245.95 295.92,242.38 ZM 220.00 241.15 C215.50,236.66 214.79,228.35 218.57,224.57 C221.00,222.15 226.27,222.59 228.95,225.44 C230.82,227.43 231.12,228.55 230.58,231.44 C230.16,233.68 229.34,235.00 228.38,235.00 C227.45,235.00 227.00,234.32 227.24,233.25 C227.45,232.29 228.27,231.64 229.06,231.82 C230.14,232.06 230.22,231.86 229.36,230.98 C227.55,229.14 224.63,230.27 223.59,233.22 C222.32,236.83 224.20,241.00 227.10,241.00 C228.89,241.00 229.04,241.25 228.00,242.50 C226.10,244.80 223.14,244.30 220.00,241.15 ZM 269.44 240.53 C267.54,239.09 267.54,239.06 269.60,239.03 C272.54,238.99 275.00,235.90 275.00,232.24 C275.00,229.06 272.84,226.00 270.58,226.00 C268.97,226.00 266.37,228.90 265.66,231.50 C265.36,232.60 265.26,231.70 265.44,229.50 C266.21,220.00 271.39,214.84 277.88,217.11 C280.55,218.04 281.56,219.52 283.32,225.10 C284.33,228.32 281.87,235.98 278.84,239.01 C275.56,242.29 272.43,242.80 269.44,240.53 ZM 203.45 238.91 C202.42,237.25 204.73,235.33 206.11,236.71 C207.27,237.87 206.54,240.00 205.00,240.00 C204.51,240.00 203.82,239.51 203.45,238.91 ZM 271.00 229.92 C271.00,227.48 273.34,227.82 273.82,230.33 C274.01,231.32 273.50,232.00 272.57,232.00 C271.65,232.00 271.00,231.15 271.00,229.92 ZM 140.30 331.40 C138.61,330.10 138.72,329.83 142.00,327.06 C146.78,323.02 149.57,321.62 151.43,322.34 C154.03,323.33 153.20,326.75 149.75,329.31 C145.52,332.46 142.52,333.12 140.30,331.40 ZM 355.01 325.41 C347.93,322.34 344.65,316.88 349.04,315.49 C351.64,314.66 357.75,317.79 360.35,321.27 C361.98,323.46 362.10,324.17 361.04,325.45 C359.49,327.32 359.41,327.32 355.01,325.41 ZM 129.02 313.52 C127.42,311.60 128.57,310.00 131.56,310.00 C134.50,310.00 134.84,312.48 132.11,313.94 C130.71,314.69 129.90,314.58 129.02,313.52 ZM 374.00 282.50 C373.08,281.39 373.00,280.60 373.74,279.86 C375.38,278.22 378.50,279.29 378.50,281.50 C378.50,283.98 375.74,284.60 374.00,282.50 ZM 196.02 134.83 C193.57,129.12 192.06,118.00 193.74,118.00 C194.30,118.00 195.28,118.63 195.91,119.40 C197.79,121.66 203.90,137.44 203.17,138.14 C202.80,138.49 201.55,139.06 200.38,139.41 C198.57,139.96 197.94,139.30 196.02,134.83 ZM 221.07 136.91 C220.46,134.05 220.15,131.51 220.39,131.27 C220.63,131.03 221.76,131.34 222.90,131.95 C226.44,133.84 227.14,141.16 223.83,141.79 C222.58,142.03 221.92,140.87 221.07,136.91 ZM 217.53 118.37 C217.15,115.83 216.60,113.13 216.31,112.37 C215.46,110.14 220.75,110.67 221.96,112.93 C223.54,115.89 223.20,119.51 221.17,121.35 C218.55,123.72 218.30,123.52 217.53,118.37 ZM 274.38 124.25 C274.66,123.29 275.42,119.69 276.07,116.25 C277.37,109.40 278.89,108.37 281.60,112.52 C284.82,117.42 281.43,126.00 276.28,126.00 C274.45,126.00 273.99,125.57 274.38,124.25 ZM 246.65 137.51 C243.95,134.80 242.74,129.01 243.21,120.95 C243.69,112.59 245.70,108.00 248.87,108.00 C251.81,108.00 253.93,111.25 255.09,117.52 C256.77,126.62 254.50,136.82 250.46,138.38 C248.30,139.20 248.36,139.22 246.65,137.51 Z" fill="rgba(253,248,239,1)"/>
</g>
</svg>